<?xml version="1.0" encoding="utf-8"?>
<!-- Generator: Adobe Illustrator 29.6.1, SVG Export Plug-In . SVG Version: 9.03 Build 0)  -->
<svg version="1.0" id="svg5434" xmlns:svg="http://www.w3.org/2000/svg"
	 xmlns="http://www.w3.org/2000/svg" xmlns:xlink="http://www.w3.org/1999/xlink" x="0px" y="0px" viewBox="-7.89 -7.89 1024 731"
	 style="enable-background:new -7.89 -7.89 1024 731;" xml:space="preserve">
<style type="text/css">
	.st0{fill:#F9F4F4;}
</style>
<path id="path5296" class="st0" d="M130.24,135.16v124.3h2.21h131.43v-124.3H130.24z"/>
<path id="path5300" class="st0" d="M20.92,20.93v354.65h2.21h116.93V20.93H20.92z"/>
<path id="path5304" class="st0" d="M254.71,20.93v354.65h2.21h116.93V20.93H254.71z"/>
<path id="path5308" class="st0" d="M883.19,20.93v354.65h2.21h117.02V20.93H883.19z"/>
<path id="path5312" class="st0" d="M578.25,20.85v0.08h-107.6v357.68h2.29h105.31h2.21c0.19,0,0.38,0,0.57,0
	c59.19-0.08,116.62-13.05,159.52-42.66c43.07-29.71,71.29-76.39,71.24-142.81c0.05-62.81-31.02-106.22-75.42-133.48
	c-44.36-27.29-101.98-38.81-155.91-38.81H578.25z M594.79,109.86c23.86,0,47.55,8.84,65.18,23.67
	c17.61,14.83,29.15,35.53,29.15,59.61c-0.03,31.36-11.13,54.55-28.41,70.1c-17.29,15.55-40.89,23.42-65.92,23.42
	c-4.57,0-9.15-0.29-13.76-0.82V110.92C585.61,110.24,590.18,109.86,594.79,109.86z"/>
</svg>
