<?xml version="1.0" encoding="UTF-8"?>
<svg id="svg2" xmlns="http://www.w3.org/2000/svg" xmlns:xlink="http://www.w3.org/1999/xlink" xmlns:svg="http://www.w3.org/2000/svg" xmlns:rdf="http://www.w3.org/1999/02/22-rdf-syntax-ns#" xmlns:dc="http://purl.org/dc/elements/1.1/" xmlns:cc="http://creativecommons.org/ns#" version="1.1" viewBox="0 0 307.81 71.88">
  <!-- Generator: Adobe Illustrator 29.6.1, SVG Export Plug-In . SVG Version: 2.1.1 Build 9)  -->
  <defs>
    <style>
      .st0 {
        fill-rule: evenodd;
      }

      .st0, .st1 {
        fill: #fff;
      }

      .st2 {
        clip-path: url(#clippath);
      }
    </style>
    <clipPath id="clippath">
      <rect class="st1" width="307.81" height="71.88"/>
    </clipPath>
  </defs>
  <g id="misc2svg">
    <g>
      <rect class="st1" width="307.81" height="71.88"/>
      <g class="st2">
        <g id="g10">
          <path id="path12" class="st1" d="M0,71.88h307.81V0H0v71.88Z"/>
          <path id="path14" class="st1" d="M0,57.81h307.81V0H0v57.81Z"/>
          <path id="path16" class="st1" d="M0,71.88h307.81v-8.75H0v8.75Z"/>
          <path id="path18" class="st1" d="M207.8,46.95h9.3v-9.3h-9.3v9.3Z"/>
          <path id="path20" class="st0" d="M16.58,17.67h9.36v-7.2h-9.36v7.2ZM16.58,46.95h9.36v-25.57h-9.36v25.57"/>
          <path id="path22" class="st0" d="M95.86,30.77c0-3.56-1.68-5-7.36-5-6.36,0-7.37,1.45-7.37,4.79l14.73.22ZM96.14,39.6h8.77c0,6.31-5.57,7.76-12.69,7.76h-7.35c-6.45,0-13.09-1.2-13.09-12.12v-2.5c0-9.69,4.76-12.65,11.82-12.65h6.84c10.37,0,14.47,3.05,14.47,11.89v4.16h-23.77v1.8c0,2.98,2.18,3.74,6.25,3.74h3.01c4.66,0,5.75,0,5.75-2.08"/>
          <path id="path24" class="st1" d="M150.09,46.95h9.35V10.46h-9.35v36.49Z"/>
          <path id="path26" class="st0" d="M127.11,41.67c6.69,0,7.57-1,7.57-2.97,0-2.17-.8-2.88-6.19-2.88h-4.34c-4.17,0-5.22.95-5.22,3.29,0,1.92,1.6,2.56,5.38,2.56h2.8ZM109.88,38.03c0-6.84,4.61-7.28,14.17-7.28,5.4,0,8.24.16,10.04,2.02l.38.39v-2.84c0-2.71-.9-3.69-4.81-3.69h-5.77c-3.03,0-3.98-.06-3.98,1.18h-9.07c0-5.3,4.91-6.86,11.52-6.86h11.38c6.63,0,10.08,3.14,10.08,9.12v16.87h-8.84v-3.29l-.38.4c-2.67,2.76-3.62,3.3-8.47,3.3h-6.68c-5.94.05-9.58-1.25-9.58-7.18v-2.14"/>
          <path id="path28" class="st0" d="M32.55,31.83c0-6.51,1.43-10.85,13.7-10.85,4.29,0,9.42,1.29,10,5.19h.68s0-15.7,0-15.7h9.35v36.49h-8.74v-4.79h-.62c-1.08,3.25-4.62,5.21-10.47,5.21-12.48,0-13.91-4.34-13.91-10.84v-4.69ZM40.88,35.7c0,3.01.55,4.76,5.38,4.76h4.53c3.93,0,6.14-.9,6.14-5.01v-2.55c0-4.11-2.21-5.01-6.14-5.01h-4.53c-4.83,0-5.38,1.75-5.38,4.76v3.06"/>
          <path id="path30" class="st0" d="M174.19,35.4c0,3.34,1.06,5.5,7.35,5.5h.58c6.37,0,8.22-.73,8.22-4.94v-3.57c0-4.07-1.21-4.95-8.22-4.95h-.58c-6.61,0-7.35,2.07-7.35,5.51v2.46ZM165.28,31.05c0-8.39,5.6-10.08,10.54-10.08h12.88c4.95,0,10.54,1.69,10.54,10.08v6.23c0,8.38-5.6,10.08-10.54,10.08h-12.88c-4.95,0-10.54-1.7-10.54-10.08v-6.23"/>
          <path id="path32" class="st0" d="M255.64,13.77h-3.94v12.92h-.09c-.83-2.43-2.98-3.48-7.47-3.48h-6c-9.48,0-12.36,2.66-12.36,10.12v4.12c0,8.06,4.99,9.84,12.13,9.84h5.49c4.12,0,7.33-1.24,8.47-4.08h.09v3.71h3.66V13.77ZM229.72,32.82c0-5.4,2.71-6.41,8.12-6.41h5.31c5.31,0,8.56.92,8.56,6.5v4.44c0,4.26-1.88,6.73-7.74,6.73h-6.42c-6.4,0-7.83-2.15-7.83-6.68v-4.58"/>
          <path id="path34" class="st0" d="M261.99,37.72c0,8.61,5.86,9.57,10.99,9.57h7.15c7.33,0,11.77-1.6,11.77-6.96v-.45h-3.95c-.22,3.56-2.24,4.21-7.19,4.21h-5.4c-6.87,0-9.44-1.37-9.44-6.68v-1.47h25.97v-2.61c0-8.33-5.08-10.12-12.14-10.12h-6.32c-5.58,0-11.45.96-11.45,9.43v5.08ZM287.95,32.74h-22.03c.37-5.32,1.83-6.32,8.06-6.32h5.77c6.41,0,8.19,2.38,8.19,4.76v1.56"/>
        </g>
      </g>
    </g>
  </g>
</svg>