<?xml version="1.0" encoding="utf-8"?>
<!-- Generator: Adobe Illustrator 29.6.1, SVG Export Plug-In . SVG Version: 9.03 Build 0)  -->
<svg version="1.0" id="svg10140" xmlns:svg="http://www.w3.org/2000/svg"
	 xmlns="http://www.w3.org/2000/svg" xmlns:xlink="http://www.w3.org/1999/xlink" x="0px" y="0px" viewBox="0 0 1133.86 226.42"
	 style="enable-background:new 0 0 1133.86 226.42;" xml:space="preserve">
<style type="text/css">
	.st0{fill:#FFFFFF;}
</style>
<g id="layer1" transform="translate(-1027.2545,-6165.6178)">
	<g id="g161995" transform="matrix(1.6151785,0,0,1.6151785,-587.92098,-3847.6616)">
		<path id="path151697" class="st0" d="M1680.06,6302.65v11.85h-1.99v-9.13h-0.13l-3.3,9.13h-1.71l-3.27-9.13v9.13h-2.01v-11.85
			h2.99l3.3,9.28l3.12-9.28H1680.06"/>
		<path id="path151699" class="st0" d="M1666.38,6302.65v1.71h-3.85v10.14h-1.99v-10.14h-3.85v-1.71H1666.38"/>
		<path id="path151701" class="st0" d="M1616.62,6284.97c2.99-9.69,2.99-15.39,0.13-19.12c-2.14-2.57-5.26-3.85-9.99-3.85
			c-10.54,0-16.38,5.99-21.08,20.98c-3.02,9.84-3.02,15.55-0.15,19.24c1.99,2.44,5.28,3.72,9.99,3.72
			C1605.91,6305.95,1611.92,6300.09,1616.62,6284.97z M1657.83,6263.29c4.13,5.16,5.01,11.7,2.57,19.7
			c-6.84,22.11-32.65,34.79-70.89,34.79c-22.82,0-38.34-4.43-45.2-12.98c-4.13-5.13-4.83-11.82-2.41-19.82
			c6.84-22.11,32.65-34.79,70.89-34.79C1635.44,6250.18,1651.13,6254.73,1657.83,6263.29"/>
		<path id="path151703" class="st0" d="M1515.22,6252.32c1.28,0,36.5,0,40.5,0c-2.44,3.27-46.49,62.46-47.22,63.47
			c-1.28,0-60.17,0-62.16,0c-0.3-1.86-7.72-61.18-8-63.47c2.41,0,36.22,0,38.08,0c0.28,1.86,5.56,44.5,5.56,44.5
			S1514.64,6253.17,1515.22,6252.32"/>
		<path id="path151705" class="st0" d="M1389.57,6284.97c2.99-9.69,3.14-15.39,0.15-19.12c-2.01-2.57-5.28-3.85-9.84-3.85
			c-10.56,0-16.55,5.99-21.1,20.98c-3.14,9.84-3.14,15.55-0.15,19.24c1.99,2.44,5.28,3.72,9.84,3.72
			C1379.03,6305.95,1385.02,6300.09,1389.57,6284.97z M1430.93,6263.29c4.15,5.16,5.01,11.7,2.44,19.7
			c-6.84,22.11-32.68,34.79-70.74,34.79c-22.82,0-38.36-4.43-45.23-12.98c-4.13-5.13-4.98-11.82-2.57-19.82
			c6.99-22.11,32.8-34.79,70.89-34.79C1408.54,6250.18,1424.09,6254.73,1430.93,6263.29"/>
		<path id="path151713" class="st0" d="M1311.72,6260.17c1.56,1.99,2.41,3.97,1.99,6.84l-15.82,48.9h-41.93l14.84-45.63
			c0.55-1.99-0.15-3.7-1.28-4.98c-2.01-2.44-6.29-4-20.98-2.99c0,0-17.38,52.9-17.68,53.6h-41.91c0.4-1.13,19.67-60.02,19.95-60.6
			c14.56-2.57,33.81-4.98,53.78-4.98C1289.76,6250.33,1306.29,6253.6,1311.72,6260.17"/>
		<path id="path151715" class="st0" d="M1158.7,6273.58c0.86-4-0.43-6.99-1.86-8.7c-1.56-2.01-5.01-4.58-12.12-4.58
			c-10.11,0-17.68,4.85-20.25,12.98l-4.98,18.69L1158.7,6273.58z M1193.92,6273.42c0,2.99-0.7,5.56-1.28,6.69
			c-1.28,0.3-74.43,16.55-74.43,16.55s-0.73,3.57,1.99,5.43c3.57,2.57,7.42,3.27,13.96,3.55c16.12,0.7,37.96-8.7,44.07-11.4
			c-0.98,3.12-7.27,16.83-7.55,17.53c-2.72,1.01-17.83,5.84-47.49,5.99c-11.27,0.15-31.37-1.28-39.64-11.7
			c-4.13-5.13-4.85-12.4-2.01-21.53c6.72-21.81,31.82-34.36,68.6-34.36c20.55,0,33.96,3.85,40.1,11.4
			C1192.64,6264.72,1193.92,6268.72,1193.92,6273.42"/>
		<path id="path151717" class="st0" d="M1051.17,6221.38c1.71,0,38.64,0,41.51,0c-0.86,2.69-28.8,92.82-29.25,94.41
			c-1.71,0-38.64,0-41.48,0C1022.79,6313.07,1050.74,6222.94,1051.17,6221.38"/>
	</g>
</g>
</svg>
