<?xml version="1.0" encoding="UTF-8"?>
<svg id="svg5204" xmlns="http://www.w3.org/2000/svg" xmlns:svg="http://www.w3.org/2000/svg" xmlns:sodipodi="http://sodipodi.sourceforge.net/DTD/sodipodi-0.dtd" xmlns:rdf="http://www.w3.org/1999/02/22-rdf-syntax-ns#" xmlns:inkscape="http://www.inkscape.org/namespaces/inkscape" xmlns:dc="http://purl.org/dc/elements/1.1/" xmlns:cc="http://creativecommons.org/ns#" version="1.1" viewBox="0 0 250 104">
  <!-- Generator: Adobe Illustrator 29.6.1, SVG Export Plug-In . SVG Version: 2.1.1 Build 9)  -->
  <defs>
    <style>
      .st0 {
        fill: #fff;
      }
    </style>
  </defs>
  <sodipodi:namedview id="namedview104" bordercolor="#666666" borderopacity="1" gridtolerance="10" guidetolerance="10" inkscape:current-layer="svg5204" inkscape:cx="135.59552" inkscape:cy="52.109021" inkscape:pageopacity="0" inkscape:pageshadow="2" inkscape:window-height="706" inkscape:window-maximized="1" inkscape:window-width="1366" inkscape:window-x="-8" inkscape:window-y="-8" inkscape:zoom="3.8185435" objecttolerance="10" pagecolor="#ffffff" showgrid="false"/>
  <g id="g85">
    <g id="g74">
      <path id="path60" class="st0" d="M66.68,56.01h2.3v46.02h-8.71v-40.43c0-1.31,2.79-5.59,6.41-5.59Z" inkscape:connector-curvature="0"/>
      <path id="path62" class="st0" d="M114.34,66.2c-4.27,0-7.56,1.81-9.86,5.42v-15.61h-.99c-4.27,0-6.57,2.3-7.72,4.27v-.33,26.46c0,10.35,5.42,15.61,16.27,15.61,10.85-.16,16.11-6.08,16.11-17.59s-4.6-17.91-13.81-18.24h0ZM111.71,94.47c-4.93,0-7.4-3.62-7.23-10.52.33-6.74,2.63-10.03,7.4-10.03s7.07,3.29,7.4,10.03c0,7.07-2.63,10.52-7.56,10.52Z" inkscape:connector-curvature="0"/>
      <path id="path64" class="st0" d="M133.24,83.95c.33-11.18,5.75-17.42,17.42-17.42h2.63v9.04h-4.11c-4.93,0-7.07,3.12-7.07,8.22v18.08h-8.88v-17.91Z" inkscape:connector-curvature="0"/>
      <g id="g68">
        <path id="path66" class="st0" d="M167.1,92.99c1.48,1.31,3.45,1.97,6.08,1.97,1.81,0,3.45-.49,4.77-1.48s2.14-1.97,2.47-2.96h8.22c-1.31,4.11-3.29,6.9-6.08,8.71-2.79,1.81-5.92,2.63-9.86,2.63-2.63,0-5.09-.49-7.23-1.31s-3.94-2.14-5.42-3.62c-1.48-1.64-2.63-3.45-3.45-5.59s-1.15-4.6-1.15-7.23c0-2.47.49-4.93,1.31-7.07s1.97-4.11,3.45-5.59c1.48-1.64,3.29-2.79,5.42-3.78,2.14-.99,4.44-1.31,7.07-1.31,2.79,0,5.42.49,7.56,1.64,2.14,1.15,3.94,2.63,5.26,4.44,1.31,1.81,2.3,3.94,2.96,6.41.66,2.3.82,4.93.66,7.56h-24.49c.33,3.12,1.15,5.26,2.47,6.57h0ZM177.62,75.24c-1.15-1.15-2.79-1.81-5.09-1.81-1.48,0-2.79.33-3.78.82-.99.49-1.81,1.15-2.3,1.81-.66.82-.99,1.48-1.31,2.3-.33.82-.33,1.64-.49,2.3h15.12c-.16-2.47-.99-4.27-2.14-5.42h0Z" inkscape:connector-curvature="0"/>
      </g>
      <rect id="rect70" class="st0" x="78.35" y="56.01" width="8.71" height="7.89"/>
      <rect id="rect72" class="st0" x="78.35" y="67.84" width="8.71" height="34.02"/>
    </g>
    <g id="g83">
      <path id="path96" class="st0" d="M237.28,37.77c-1.48,1.64-3.45,2.63-5.92,2.63s-4.44-.99-5.92-2.63-1.97-4.44-1.97-7.72c0-3.45.66-5.92,1.97-7.56,1.48-1.64,3.45-2.63,5.92-2.63s4.44.99,5.92,2.63,1.97,4.44,1.97,7.56-.49,5.75-1.97,7.72ZM244.18,17.39c-2.63-3.45-7.07-5.42-12.82-5.42s-10.19,1.64-12.82,5.42c-2.63,3.45-4.27,7.72-4.27,12.49s1.48,9.2,4.27,12.49c2.63,3.45,7.07,5.26,12.82,5.26s10.19-1.64,12.82-5.26c2.63-3.45,4.27-7.72,4.27-12.49.16-4.6-1.31-8.88-4.27-12.49" inkscape:connector-curvature="0"/>
      <path id="path108" class="st0" d="M201.45,37.77c-1.15,1.64-3.12,2.63-5.59,2.63s-4.44-.99-5.42-2.63c-1.15-1.97-1.64-4.44-1.64-7.72,0-2.96.49-5.26,1.64-7.07,1.15-1.97,2.96-2.96,5.59-2.96,1.64,0,3.12.49,4.44,1.48,1.97,1.64,3.12,4.93,3.12,9.2-.49,2.96-.82,5.42-2.14,7.07h0ZM211.64,1.94s-8.88-.99-8.88,6.08v9.37c-.99-1.48-2.14-2.63-3.94-3.78-1.48-.99-3.45-1.15-5.42-1.15-4.44,0-7.89,1.64-10.68,4.93-2.63,3.12-3.94,7.89-3.94,13.81,0,4.93,1.15,9.2,3.94,12,2.63,3.12,7.89,4.44,12.49,4.44,16.27,0,15.94-13.81,15.94-13.81l.49-31.88" inkscape:connector-curvature="0"/>
      <path id="path98" class="st0" d="M167.92,33.66c0,2.96-.99,4.93-2.47,6.08-1.64.99-3.45,1.64-5.26,1.64-1.15,0-2.14-.16-2.96-.99s-1.15-1.64-1.15-3.12c0-1.64.66-2.96,1.97-3.78.66-.49,2.14-.99,3.94-1.15l1.97-.49c.99-.16,1.64-.49,2.47-.49.49-.16,1.15-.49,1.64-.66l-.16,2.96ZM172.36,14.43c-2.96-1.48-6.08-2.14-9.86-2.14-5.59,0-9.7,1.48-12,4.44-1.48,1.97-2.14,4.27-2.47,7.07h8.38c.16-1.15.66-2.14,1.15-2.96.99-.99,2.47-1.48,4.44-1.48s3.12.16,4.27.66c.99.49,1.48,1.48,1.48,2.96,0,1.15-.66,1.97-1.97,2.47-.66.16-1.97.49-3.45.66l-2.96.16c-3.45.49-5.92,1.15-7.72,2.14-3.12,1.64-4.77,4.93-4.77,8.88,0,3.12.99,5.59,2.96,7.4,1.97,1.64,4.44,2.47,7.56,2.63,19.23.66,19.07-10.19,19.07-12.33v-12.49c.16-3.62-1.15-6.57-4.11-8.05" inkscape:connector-curvature="0"/>
      <path id="path100" class="st0" d="M128.8,19.85c2.14,0,3.78.66,4.93,1.97.66.99,1.15,2.14,1.15,3.45h9.37c-.49-4.77-2.14-8.22-4.93-9.86-2.63-1.97-6.41-2.63-10.85-2.63-5.26,0-9.37,1.48-12.33,4.77s-4.44,7.72-4.44,13.31c0,5.26,1.15,9.2,3.94,12.33,2.63,3.12,6.9,4.77,12.49,4.77s9.86-1.97,12.82-5.59c1.64-2.47,2.63-4.93,2.96-7.72h-9.37c-.16,1.64-.66,3.12-1.64,4.27-.99.99-2.47,1.64-4.77,1.64-2.96,0-5.26-1.48-6.08-4.27-.49-1.48-.99-3.45-.99-5.92s.16-4.77.99-6.08c1.48-2.96,3.45-4.44,6.74-4.44" inkscape:connector-curvature="0"/>
      <path id="path102" class="st0" d="M109.25,12.46c-19.56,0-18.24,17.26-18.24,17.26v17.42h8.88v-16.27c0-2.63.16-4.77.99-5.92,1.15-2.14,3.45-3.45,7.07-3.45h.99c.49,0,.99,0,1.48.16v-8.88h-.66q-.16-.33-.49-.33" inkscape:connector-curvature="0"/>
      <path id="path104" class="st0" d="M65.2,21.49c1.15-1.15,2.96-1.97,5.26-1.97,1.97,0,3.78.49,5.26,1.64,1.48,1.15,2.14,2.96,2.14,5.26h-15.12c.49-1.97,1.15-3.62,2.47-4.93ZM77.03,37.77c-.16.49-.66.99-1.15,1.15-1.15.99-2.96,1.15-4.93,1.15s-3.45-.16-4.77-1.15c-2.14-1.15-3.45-3.78-3.45-6.9h24.32c0-2.96,0-5.26-.16-6.57-.49-2.63-1.15-4.93-2.63-6.9-1.48-2.14-3.45-3.94-5.59-4.93s-4.93-1.48-7.89-1.48c-4.93,0-8.88,1.48-11.83,4.77-2.96,3.12-4.77,7.56-4.77,13.31,0,6.08,1.64,10.68,5.26,13.31,3.45,2.63,7.4,4.27,11.83,4.27,5.42,0,9.7-1.64,12.49-4.93,1.64-1.64,2.63-3.45,2.96-5.26l-9.7.16" inkscape:connector-curvature="0"/>
      <path id="path106" class="st0" d="M50.41,46.97h-8.22v-20.22c0-1.97-.49-6.08-5.92-6.08-3.45,0-6.08,2.47-6.08,6.08v20.22h-8.22v-20.22c0-1.97-.49-6.08-5.92-6.08-3.45,0-5.92,2.47-5.92,6.08v20.22H1.92v-20.05c0-8.38,5.42-14.79,13.97-14.79,4.27,0,7.72,1.64,10.19,4.77,2.47-2.96,5.92-4.77,10.19-4.77,8.88,0,13.97,6.08,13.97,14.79l.16,20.05" inkscape:connector-curvature="0"/>
    </g>
  </g>
</svg>