<?xml version="1.0" encoding="UTF-8"?>
<svg id="svg7091" xmlns="http://www.w3.org/2000/svg" xmlns:svg="http://www.w3.org/2000/svg" xmlns:sodipodi="http://sodipodi.sourceforge.net/DTD/sodipodi-0.dtd" xmlns:rdf="http://www.w3.org/1999/02/22-rdf-syntax-ns#" xmlns:inkscape="http://www.inkscape.org/namespaces/inkscape" xmlns:dc="http://purl.org/dc/elements/1.1/" xmlns:cc="http://creativecommons.org/ns#" version="1.1" viewBox="0 0 155 63.4">
  <!-- Generator: Adobe Illustrator 29.6.1, SVG Export Plug-In . SVG Version: 2.1.1 Build 9)  -->
  <defs>
    <style>
      .st0 {
        fill: #fff;
      }
    </style>
  </defs>
  <sodipodi:namedview id="base" bordercolor="#666666" borderopacity="1.0" fit-margin-bottom="0" fit-margin-left="0" fit-margin-right="0" fit-margin-top="0" inkscape:current-layer="layer1" inkscape:cx="77.000088" inkscape:cy="31.19983" inkscape:document-units="mm" inkscape:pageopacity="0.0" inkscape:pageshadow="2" inkscape:window-height="744" inkscape:window-maximized="1" inkscape:window-width="1280" inkscape:window-x="-4" inkscape:window-y="-4" inkscape:zoom="5.8246687" pagecolor="#ffffff" showgrid="false" units="px"/>
  <g id="layer1" inkscape:groupmode="layer" inkscape:label="Layer 1">
    <path id="path7097" class="st0" d="M10.4,18.7c3.3,0,6.4,1,8.8,2.7l-.9-2.3h9.5l3.2,11.4.7,2.6s.4-1.3.7-2.6l3.3-11.4h9.5l-.8,2.4c2.4-1.8,5.5-2.7,8.8-2.7.5,0,.9,0,1.4.1L49.7.5.5,13.7l1.9,7.2c2.3-1.4,5-2.2,8-2.2h0ZM53.2,27c-2.9,0-4.7,2.2-4.7,4.9,0,2.9,1.9,4.8,4.7,4.8s4.7-2,4.7-4.8c0-.4,0-.8-.1-1.1l-.2-.6c-.6-1.9-2.2-3.2-4.4-3.2h0ZM15,31.8c0-2.7-1.8-4.9-4.7-4.9s-4.7,2.2-4.7,4.9c0,2.9,1.9,4.8,4.7,4.8,2.8.1,4.7-1.9,4.7-4.8ZM53.2,44.6c-6.9,0-12.6-3.9-13.7-10.5l-3.9,10.1h-7.7l-3.9-10.1c-1.1,6.6-6.8,10.5-13.7,10.5-.5,0-1.1,0-1.6-.1l4.9,18.4,49.2-13.2-1.9-7.1c-2.1,1.3-4.8,2-7.7,2h0ZM70.6,33.2c0,2.8,1.8,5,4.9,5,3.6,0,4.6-2.2,5.6-2.2.5,0,1,.4,1,1.2,0,1.3-3.4,3.4-6.6,3.4-5.3,0-7.6-4.1-7.6-8.5s2.8-8.5,7.4-8.5,7.1,4.1,7.1,8.1c0,1-.3,1.5-1.5,1.5h-10.3ZM79.7,31.1c0-2.4-1.4-5.1-4.4-5.1-3.4-.1-4.6,2.6-4.7,5.1h9.1ZM84.6,25.1c0-.9.5-1.5,1.4-1.5.8,0,1.4.6,1.4,1.5v.7l.1.1c1.2-1.6,2.9-2.2,4.6-2.2,2.6,0,5.8,1.6,5.8,6.3v9.2c0,.9-.5,1.5-1.4,1.5-.8,0-1.4-.6-1.4-1.5v-9c0-2.9-2-4.1-3.8-4.1s-3.8,1.2-3.8,4.1v9c0,.9-.5,1.5-1.4,1.5-.8,0-1.4-.6-1.4-1.5v-14.1h-.1ZM102.8,33.2c0,2.8,1.8,5,4.9,5,3.6,0,4.6-2.2,5.6-2.2.5,0,1,.4,1,1.2,0,1.3-3.4,3.4-6.6,3.4-5.3,0-7.6-4.1-7.6-8.5s2.8-8.5,7.4-8.5,7.1,4.1,7.1,8.1c0,1-.3,1.5-1.5,1.5h-10.3ZM111.9,31.1c0-2.4-1.4-5.1-4.4-5.1-3.4-.1-4.6,2.6-4.7,5.1h9.1ZM116.8,25.1c0-.9.5-1.5,1.4-1.5.8,0,1.4.6,1.4,1.5v1.4h.1c.6-1.3,2.1-2.9,3.7-2.9,1,0,1.5.6,1.5,1.4s-.6,1.3-1.7,1.5c-1.6.3-3.6,1.5-3.6,4.7v7.9c0,.9-.5,1.5-1.4,1.5-.8,0-1.4-.6-1.4-1.5v-14ZM139.8,39.2c0,4.9-3,7.9-7.5,7.9-2.8,0-6.3-1.6-6.3-3,0-.6.3-1.3,1.2-1.3,1.2,0,2.5,1.9,5.4,1.9,3.5,0,4.5-2.7,4.5-5.1v-1.4h-.1c-.8,1.4-2.3,2.4-4.2,2.4-4.7,0-7.3-4.1-7.3-8.5s2.6-8.5,7.3-8.5c1.8,0,3.5,1.1,4.2,2.1h.1v-.7c0-1,.7-1.3,1.5-1.3.5,0,1.3.4,1.3,1.3v14.2h-.1ZM132.8,38.2c3.4,0,4.5-3.3,4.5-6.1s-1.2-6.1-4.5-6.1-4.5,3.3-4.5,6.1,1.1,6.1,4.5,6.1ZM142.2,26.3c-.3-.9-.4-1.2-.4-1.5,0-.7.6-1.2,1.2-1.2.7,0,1.2.4,1.4,1l3.8,11.4h.1l3.7-11.4c.2-.6.6-1,1.3-1,.6,0,1.2.5,1.2,1.2,0,.3-.1.6-.4,1.5l-6.9,19.7c-.2.6-.7,1-1.3,1s-1.2-.5-1.2-1.2c0-.3.1-.6.4-1.5l1.7-4.6-4.6-13.4Z" inkscape:connector-curvature="0"/>
  </g>
</svg>