<?xml version="1.0" encoding="UTF-8"?>
<svg id="Layer_1" xmlns="http://www.w3.org/2000/svg" version="1.1" viewBox="0 0 285.48 90.5">
  <!-- Generator: Adobe Illustrator 29.6.1, SVG Export Plug-In . SVG Version: 2.1.1 Build 9)  -->
  <defs>
    <style>
      .st0 {
        fill: #fff;
      }
    </style>
  </defs>
  <circle class="st0" cx="238.24" cy="17.3" r="10.65"/>
  <path class="st0" d="M86.82,62.55c5.18,0,8.2-3.88,7.98-7.69-.06-1.44-.24-2.88-.53-4.29-3.18-13.77-14.38-23.95-27.71-23.95-15.8,0-28.61,14.3-28.61,31.94s12.81,31.94,28.61,31.94c9.9,0,16.97-3.61,22.12-9.26,2.3-2.51,2.12-6.4-.38-8.69-.2-.18-.41-.35-.63-.51-2.49-1.73-5.63-1.14-7.94.81-2.21,1.86-6.42,5.68-13.16,5.68-8.05,0-14.76-6.86-16.3-15.97h36.57ZM66.55,38.6c7.24,0,13.4,5.56,15.69,13.31h-31.37c2.28-7.76,8.44-13.31,15.69-13.31Z"/>
  <path class="st0" d="M38.6,32.81c0-2.92-2.12-5.42-5-5.9-8.72-1.32-16.87,1.94-21.61,7.84v-.8c0-3.31-2.68-5.99-5.99-6-3.31,0-5.99,2.68-6,5.99v49.01c-.05,3.22,2.41,5.94,5.62,6.21,3.3.2,6.14-2.31,6.35-5.61,0-.12.01-.25.01-.37v-25.28c0-11.19,8.41-20.37,19.96-19.13.39.04.79.04,1.18,0,3.1-.26,5.48-2.85,5.48-5.96Z"/>
  <path class="st0" d="M244.23,39.26c0-3.31-2.69-5.99-5.99-5.98-3.3,0-5.98,2.68-5.98,5.98v43.92c0,3.31,2.69,5.99,5.99,5.98,3.3,0,5.98-2.68,5.98-5.98v-43.92Z"/>
  <path class="st0" d="M155.05,5.99C155.05,2.68,152.37,0,149.06,0h0c-3.31,0-5.99,2.68-5.99,5.99v26.75c-4.05-4.05-9.58-6.26-15.31-6.12-15.8,0-28.61,14.3-28.61,31.94s12.81,31.94,28.61,31.94c5.77.12,11.34-2.11,15.41-6.19.62,3.25,3.76,5.38,7.01,4.75,2.82-.54,4.86-3.01,4.86-5.88V5.99ZM127.77,78.53c-9.19,0-16.64-8.94-16.64-19.96s7.45-19.96,16.64-19.96,16.64,8.94,16.64,19.96-7.45,19.96-16.64,19.96Z"/>
  <path class="st0" d="M217.61,5.99C217.61,2.68,214.92,0,211.62,0h0c-3.31,0-5.99,2.68-5.99,5.99v26.75c-4.05-4.05-9.58-6.26-15.31-6.12-15.8,0-28.61,14.3-28.61,31.94s12.81,31.94,28.61,31.94c5.77.12,11.34-2.11,15.42-6.19.62,3.25,3.75,5.38,7,4.76,2.83-.54,4.87-3.01,4.87-5.89V5.99ZM190.32,78.53c-9.19,0-16.64-8.94-16.64-19.96s7.45-19.96,16.64-19.96,16.64,8.94,16.64,19.96-7.45,19.96-16.64,19.96Z"/>
  <path class="st0" d="M274.65,83.18v-44.58h5.32c2.85.04,5.25-2.13,5.49-4.97.2-2.93-2.02-5.47-4.96-5.67-.12,0-.24-.01-.35-.01h-5.51v-8.45c.04-3.21-2.4-5.9-5.59-6.18-3.3-.22-6.15,2.28-6.37,5.58,0,.13-.01.27-.01.4v8.65h-4.96c-2.85-.04-5.25,2.13-5.49,4.97-.2,2.93,2.02,5.47,4.96,5.67.12,0,.24.01.35.01h5.14v44.59c0,3.31,2.68,5.99,5.99,5.99h0c3.31,0,5.99-2.68,5.99-5.99h0Z"/>
</svg>