<?xml version="1.0" encoding="UTF-8"?>
<svg id="b6bdd2b4-52ab-488a-9a30-1e6d1d7dd2d4" xmlns="http://www.w3.org/2000/svg" xmlns:svg="http://www.w3.org/2000/svg" xmlns:sodipodi="http://sodipodi.sourceforge.net/DTD/sodipodi-0.dtd" xmlns:rdf="http://www.w3.org/1999/02/22-rdf-syntax-ns#" xmlns:inkscape="http://www.inkscape.org/namespaces/inkscape" xmlns:dc="http://purl.org/dc/elements/1.1/" xmlns:cc="http://creativecommons.org/ns#" version="1.1" viewBox="0 0 192.3 146">
  <!-- Generator: Adobe Illustrator 29.6.1, SVG Export Plug-In . SVG Version: 2.1.1 Build 9)  -->
  <defs>
    <style>
      .st0 {
        fill: #fff;
      }
    </style>
  </defs>
  <sodipodi:namedview id="namedview13" bordercolor="#666666" borderopacity="1" fit-margin-bottom="1" fit-margin-left="1" fit-margin-right="1" fit-margin-top="1" gridtolerance="10" guidetolerance="10" inkscape:current-layer="b6bdd2b4-52ab-488a-9a30-1e6d1d7dd2d4" inkscape:cx="306.89999" inkscape:cy="73" inkscape:pageopacity="0" inkscape:pageshadow="2" inkscape:window-height="1007" inkscape:window-maximized="1" inkscape:window-width="1920" inkscape:window-x="0" inkscape:window-y="0" inkscape:zoom="0.45930043" objecttolerance="10" pagecolor="#ffffff" showgrid="false"/>
  <path id="path8" class="st0" d="M128,84c12.5,0,30.6-2.6,30.6-17.5,0-1.14-.1-2.28-.3-3.4l-7.4-32.4c-1.7-7.1-3.2-10.4-15.7-16.6-9.7-5-30.8-13.1-37.1-13.1-5.9,0-7.6,7.5-14.5,7.5s-11.6-5.6-17.9-5.6-9.9,4.1-12.9,12.5c0,0-8.4,23.7-9.5,27.2-.17.62-.23,1.26-.2,1.9-.1,9.2,36.2,39.4,84.9,39.5M160.5,72.6c1.7,8.2,1.7,9.1,1.7,10.1,0,14-15.7,21.8-36.4,21.8-46.8,0-87.7-27.4-87.7-45.5,0-2.51.51-4.99,1.5-7.3-16.8.8-38.6,3.8-38.6,23,0,31.5,74.6,70.3,133.6,70.3,45.3,0,56.7-20.5,56.7-36.7,0-12.7-11-27.1-30.8-35.7" inkscape:connector-curvature="0"/>
  <path id="path10" class="st0" d="M160.5,72.6c1.7,8.2,1.7,9.1,1.7,10.1,0,14-15.7,21.8-36.4,21.8-46.8,0-87.7-27.4-87.7-45.5,0-2.51.51-4.99,1.5-7.3l3.7-9.1c-.17.62-.23,1.26-.2,1.9,0,9.2,36.3,39.4,84.9,39.4,12.5,0,30.6-2.6,30.6-17.5,0-1.14-.1-2.28-.3-3.4l2.2,9.6Z" inkscape:connector-curvature="0"/>
</svg>