<?xml version="1.0" encoding="UTF-8"?>
<svg id="Layer_1" xmlns="http://www.w3.org/2000/svg" version="1.1" viewBox="0 0 595.28 141.73">
  <!-- Generator: Adobe Illustrator 29.6.1, SVG Export Plug-In . SVG Version: 2.1.1 Build 9)  -->
  <defs>
    <style>
      .st0 {
        fill: #fff;
        fill-rule: evenodd;
      }
    </style>
  </defs>
  <g id="Ebene_x5F_1">
    <path class="st0" d="M567.27,29.33v16.52c-8.56-3.23-16.18-4.87-22.85-4.87-3.95,0-7.1.73-9.46,2.15-2.37,1.43-3.57,3.18-3.57,5.26,0,2.76,2.67,5.21,8.05,7.4l15.54,7.56c12.56,5.99,18.79,13.94,18.79,23.92,0,8.3-3.3,14.93-9.97,19.83-6.62,4.95-15.54,7.4-26.63,7.4-5.12,0-9.72-.22-13.8-.68-4.09-.44-8.78-1.34-13.99-2.63v-17.29c9.55,3.23,18.24,4.87,26.07,4.87,9.34,0,13.99-2.71,13.99-8.17,0-2.72-1.9-4.91-5.77-6.63l-17.25-7.35c-6.37-2.88-11.1-6.37-14.19-10.5-3.05-4.17-4.6-8.95-4.6-14.41,0-7.65,3.22-13.8,9.58-18.49,6.41-4.65,14.93-6.97,25.51-6.97,3.44,0,7.4.3,11.79.87,4.43.6,8.68,1.33,12.78,2.23h0Z"/>
    <path class="st0" d="M78.58,29.33v16.52c-8.56-3.23-16.17-4.87-22.84-4.87-3.96,0-7.1.73-9.46,2.15-2.37,1.43-3.57,3.18-3.57,5.26,0,2.76,2.71,5.21,8.08,7.4l15.54,7.56c12.51,5.99,18.75,13.94,18.75,23.92,0,8.3-3.32,14.93-9.94,19.83-6.67,4.95-15.54,7.4-26.67,7.4-5.12,0-9.73-.22-13.82-.68-4.09-.44-8.73-1.34-13.97-2.63v-17.29c9.58,3.23,18.28,4.87,26.06,4.87,9.34,0,13.99-2.71,13.99-8.17,0-2.72-1.89-4.91-5.72-6.63l-17.25-7.35c-6.41-2.88-11.15-6.37-14.19-10.5-3.1-4.17-4.61-8.95-4.61-14.41,0-7.65,3.19-13.8,9.6-18.49,6.37-4.65,14.89-6.97,25.47-6.97,3.48,0,7.39.3,11.83.87,4.39.6,8.65,1.33,12.73,2.23Z"/>
    <polygon class="st0" points="96.39 27.78 121.69 27.78 121.69 112.96 96.39 112.96 96.39 27.78"/>
    <polygon class="st0" points="203.21 27.78 203.21 43.52 165.61 43.52 165.61 62.41 198.22 62.41 198.22 76.61 165.61 76.61 165.61 96.43 203.97 96.43 203.97 112.96 141.26 112.96 141.26 27.78 203.21 27.78"/>
    <polygon class="st0" points="321.33 27.78 321.33 112.96 297.71 112.96 297.71 56.78 273.2 113.74 258.62 113.74 235.04 56.78 235.04 112.96 217.96 112.96 217.96 27.78 248.85 27.78 269.93 79.92 291.99 27.78 321.33 27.78"/>
    <polygon class="st0" points="402.81 27.78 402.81 43.52 365.42 43.52 365.42 62.41 398.03 62.41 398.03 76.61 365.42 76.61 365.42 96.43 403.58 96.43 403.58 112.96 340.87 112.96 340.87 27.78 402.81 27.78"/>
    <polygon class="st0" points="491.6 27.78 491.6 112.96 464.76 112.96 434.64 58.33 434.64 112.96 417.57 112.96 417.57 27.78 445.19 27.78 474.53 81.47 474.53 27.78 491.6 27.78"/>
  </g>
</svg>