<?xml version="1.0" encoding="UTF-8"?>
<svg id="Calque_1" xmlns="http://www.w3.org/2000/svg" version="1.1" viewBox="0 0 184.35 42.02">
  <!-- Generator: Adobe Illustrator 29.6.1, SVG Export Plug-In . SVG Version: 2.1.1 Build 9)  -->
  <defs>
    <style>
      .st0 {
        fill: #fff;
      }
    </style>
  </defs>
  <g>
    <path class="st0" d="M9.6,18.81l1.91.38c4.8.97,6.89,3.06,6.89,6.89,0,4.63-3.41,7.09-9.74,7.09H.17v-4.87c2.78.56,5.7.87,8.14.87,3.65,0,5.49-.97,5.49-2.89s-.94-2.54-5.01-3.34l-1.91-.38c-4.76-.94-6.89-3.06-6.89-6.89,0-4.31,3.48-6.85,9.39-6.85h7.58v4.87c-2.68-.59-4.94-.87-7.23-.87-3.27,0-5.15,1.01-5.15,2.75s1.01,2.43,5.01,3.23ZM42.39,21v12.17h-7.75c-8.83,0-13.98-4.45-13.98-12.17s5.15-12.17,13.98-12.17h6.02v4.73c-2.05-.49-4.24-.73-6.29-.73-5.7,0-9.01,3.03-9.01,8.17s3.34,8,9.01,8h3.69v-8s4.35,0,4.35,0Z"/>
    <rect class="st0" x="52.67" y="0" width="42" height="18.9"/>
    <rect class="st0" x="52.67" y="23.1" width="42" height="18.9"/>
    <rect class="st0" x="52.67" y="18.9" width="42" height="4.2"/>
  </g>
  <g>
    <g>
      <path class="st0" d="M109.09,12.95l.79.16c1.96.39,2.83,1.24,2.83,2.8,0,1.99-1.4,3.06-4,3.06-1.27,0-2.54-.16-3.49-.43v-1.71c1.24.33,2.39.5,3.34.5,1.57,0,2.32-.43,2.32-1.34,0-.81-.36-1.04-2.11-1.39l-.79-.16c-1.96-.39-2.83-1.24-2.83-2.8,0-1.89,1.44-2.96,4-2.96,1.16,0,2.19.1,2.97.3v1.71c-.99-.23-2.04-.37-2.83-.37-1.49,0-2.32.44-2.32,1.24s.36,1.04,2.11,1.39Z"/>
      <path class="st0" d="M119.29,8.68c3.29,0,5.37,2,5.37,5.14s-2.09,5.14-5.37,5.14-5.37-2-5.37-5.14,2.09-5.14,5.37-5.14ZM119.29,10.33c-2.16,0-3.52,1.36-3.52,3.5s1.36,3.5,3.52,3.5,3.51-1.36,3.51-3.5-1.36-3.5-3.51-3.5Z"/>
      <path class="st0" d="M126.1,13.83c0-3.17,2.1-5.14,5.49-5.14.9,0,1.77.09,2.73.26v1.67c-.99-.2-1.73-.29-2.59-.29-2.37,0-3.77,1.3-3.77,3.5s1.4,3.5,3.77,3.5c.86,0,1.6-.09,2.66-.3v1.67c-1.03.19-1.9.27-2.8.27-3.39,0-5.49-1.97-5.49-5.14Z"/>
      <path class="st0" d="M138.25,18.83h-1.86v-10h1.86v10Z"/>
      <path class="st0" d="M140.76,8.82h7.34v1.69h-5.49v2.17h4.06v1.69h-4.06v2.77h5.63v1.69h-7.49v-10Z"/>
      <path class="st0" d="M149.61,8.82h8.69v1.69h-3.41v8.32h-1.86v-8.32h-3.41v-1.69Z"/>
      <path class="st0" d="M159.94,8.82h7.34v1.69h-5.49v2.17h4.06v1.69h-4.06v2.77h5.63v1.69h-7.49v-10Z"/>
    </g>
    <g>
      <path class="st0" d="M114.18,28.13v4.69c-1.16.33-2.46.5-3.73.5-3.39,0-5.49-1.97-5.49-5.14s2.1-5.14,5.49-5.14c.99,0,2.14.13,3.01.33v1.67c-.96-.23-1.97-.36-2.87-.36-2.37,0-3.77,1.3-3.77,3.5s1.4,3.5,3.77,3.5c.59,0,1.19-.04,1.8-.14v-3.4h1.79Z"/>
      <path class="st0" d="M116.41,23.17h7.34v1.69h-5.49v2.17h4.06v1.69h-4.06v2.77h5.63v1.69h-7.49v-10Z"/>
      <path class="st0" d="M127.75,26.58v6.59h-1.83v-10h1.14l5.89,6.59v-6.59h1.83v10h-1.14l-5.89-6.59Z"/>
      <path class="st0" d="M137.33,23.17h7.34v1.69h-5.49v2.17h4.06v1.69h-4.06v2.77h5.63v1.69h-7.49v-10Z"/>
      <path class="st0" d="M146.84,23.17h4.42c2.33,0,3.66,1.07,3.66,2.97,0,1.39-.69,2.29-1.97,2.66l2.47,4.37h-2.03l-2.23-4.06h-2.46v4.06h-1.86v-10ZM148.7,24.81v2.66h2.56c1.19,0,1.8-.44,1.8-1.33s-.61-1.33-1.8-1.33h-2.56Z"/>
      <path class="st0" d="M163.73,31.24h-4.52l-.84,1.93h-1.89l4.43-10h1.14l4.43,10h-1.92l-.84-1.93ZM163.04,29.64l-1.57-3.62-1.57,3.62h3.14Z"/>
      <path class="st0" d="M175.12,33.17h-7.06v-10h1.86v8.32h5.2v1.69Z"/>
      <path class="st0" d="M176.83,23.17h7.34v1.69h-5.49v2.17h4.06v1.69h-4.06v2.77h5.63v1.69h-7.49v-10Z"/>
    </g>
  </g>
</svg>