<?xml version="1.0" encoding="UTF-8"?>
<svg id="svg11038" xmlns="http://www.w3.org/2000/svg" xmlns:svg="http://www.w3.org/2000/svg" xmlns:rdf="http://www.w3.org/1999/02/22-rdf-syntax-ns#" xmlns:dc="http://purl.org/dc/elements/1.1/" xmlns:cc="http://creativecommons.org/ns#" version="1.1" viewBox="0 0 988.81 128.9">
  <!-- Generator: Adobe Illustrator 29.6.1, SVG Export Plug-In . SVG Version: 2.1.1 Build 9)  -->
  <defs>
    <style>
      .st0 {
        fill: #fff;
      }
    </style>
  </defs>
  <g id="layer1">
    <g id="g11594">
      <g id="g10482">
        <path id="path10484" class="st0" d="M679.4.16l-25.06.07v128.58h114.92c12.57-5.33,19.3-14.55,21.9-25.32h-111.83l.07-103.32ZM866.93,25.86h95.86c13.32-2.63,23.24-14.39,26.02-25.76h-147.91c2.76,11.37,12.83,23.12,26.03,25.76M556.48,25.5c13.32-3.87,24.54-14.03,27.27-25.3h-140.66v75.97h115.13v26.67l-90.3.08c-14.16,3.94-26.13,13.43-32.13,25.99l7.3-.13h139.88V50.91h-115.05v-25.42h88.56,0ZM844.76,128.77h24.93v-51.76h90.75v51.76h24.91V51.14l-140.6-.13v77.76h0ZM249.35,25.77h95.84C358.53,23.12,368.43,11.37,371.22,0h-147.9c2.76,11.37,12.81,23.12,26.03,25.77M0,.29c2.88,11.25,12.62,22.72,25.97,25.61h40.34l2.05.81v101.8h25.21V26.72l2.28-.81h40.39c13.48-3.48,23.01-14.36,25.86-25.61V.05H0S0,.29,0,.29ZM249.35,128.79h95.84c13.33-2.67,23.24-14.39,26.02-25.77h-147.9c2.76,11.38,12.81,23.11,26.03,25.77M249.35,76.59h95.84c13.33-2.63,23.24-14.39,26.02-25.76h-147.9c2.76,11.37,12.81,23.12,26.03,25.76"/>
      </g>
    </g>
  </g>
</svg>