<?xml version="1.0" encoding="UTF-8"?>
<svg id="Layer_1" xmlns="http://www.w3.org/2000/svg" version="1.1" viewBox="0 0 484 57.4">
  <!-- Generator: Adobe Illustrator 29.6.1, SVG Export Plug-In . SVG Version: 2.1.1 Build 9)  -->
  <defs>
    <style>
      .st0 {
        fill: #fff;
      }
    </style>
  </defs>
  <path class="st0" d="M484,42.1c0,7.8-2.3,10.1-8.5,12-6.7,2-18.6,3.3-25.7,3.3-8.4,0-18.9-.5-27.8-2.6v-9h49.3v-12.3h-34.9c-10.5,0-14.4-2.9-14.4-13.1v-5.4c0-8.1,2.4-10.5,8.9-12.2C437.5,1.1,448.3,0,455.4,0,464,0,474.3.7,483.2,2.7v9h-48.5v10.3h34.9c10.5,0,14.4,2.8,14.4,13.1v7Z"/>
  <path class="st0" d="M400,54.7c-10.2,2-20.5,2.6-30.5,2.6s-20.4-.6-30.7-2.6V2.7C349,.7,359.4,0,369.3,0s20.1.6,30.3,2.7v9.3h-46.2v10.4h30.1v10.8h-30.1v12.3h46.4v9.2h.2Z"/>
  <path class="st0" d="M321,54.7c-9.2,2-18.4,2.6-27.3,2.6s-18.3-.5-27.5-2.6V1.3h14.7v43.5h40.1v9.9Z"/>
  <path class="st0" d="M249,55.1c-4.9,1.4-11.4,1.9-16.2,2l-22.7-45.8h-1.3l-22.6,45.8c-4.8-.1-10.5-.6-15.4-2L199.5,1.4h20.5l29,53.7Z"/>
  <path class="st0" d="M219,41.4c0,5.3-4.3,9.5-9.6,9.5s-9.5-4.3-9.5-9.5,4.3-9.5,9.5-9.5,9.6,4.2,9.6,9.5"/>
  <path class="st0" d="M153,55.1c-4.7,1.4-9.7,1.8-14.7,1.9v-23.3h-36.5v23.3c-5-.1-10-.6-14.7-1.9V2.3c4.7-1.4,9.7-1.8,14.7-1.9v22.5h36.5V.4c5,.1,10,.6,14.7,1.9v52.8Z"/>
  <path class="st0" d="M66.2,12.1h-25.8v44h-14.6V12.1H0V2.7C11.1.7,22.3,0,33.1,0s22,.6,33.1,2.7v9.4Z"/>
</svg>