<svg xmlns="http://www.w3.org/2000/svg" id="Layer_2" data-name="Layer 2" viewBox="0 0 821.91 414.37"><defs><style>      .cls-1 {        fill: #ed2024;      }      .cls-2 {        fill: #fff;      }    </style></defs><g id="Layer_1-2" data-name="Layer 1"><g><g><g><path class="cls-1" d="M279.09,198.78l-12.63,16.34h-31.92c-5.51,0-10.61-.82-15.29-2.47-4.69-1.65-8.72-3.91-12.11-6.79-3.39-2.88-6.05-6.3-7.98-10.26-1.93-3.96-2.9-8.25-2.9-12.87s.96-8.85,2.9-12.68c1.93-3.83,4.59-7.12,7.98-9.88,3.39-2.76,7.42-4.88,12.11-6.36,4.69-1.49,9.78-2.23,15.29-2.23h44.55l-12.63,16.53h-31.92c-2.66,0-5.13.38-7.41,1.14-2.28.76-4.24,1.82-5.89,3.18-1.65,1.36-2.94,2.99-3.89,4.89-.95,1.9-1.43,3.99-1.43,6.27s.46,4.35,1.38,6.22c.92,1.87,2.22,3.47,3.9,4.8,1.68,1.33,3.66,2.36,5.94,3.09,2.28.73,4.75,1.09,7.41,1.09h44.55Z"></path><path class="cls-1" d="M376.94,151.56l-37.71,42.56v20.99h-19.76v-21.09l-38.76-42.46h25.27l15.2,17.67c.51.57,1.17,1.32,1.99,2.23.82.92,1.68,1.89,2.57,2.9.89,1.01,1.71,1.96,2.47,2.85.76.89,1.3,1.55,1.61,2,.63-.89,1.55-2.09,2.76-3.61,1.2-1.52,2.94-3.67,5.22-6.46l14.44-17.57h24.7Z"></path><path class="cls-1" d="M446.77,182.44c2.79.82,5.14,2.44,7.08,4.84,1.93,2.41,2.9,5.51,2.9,9.31,0,2.66-.41,5.11-1.23,7.36-.82,2.25-2.22,4.2-4.18,5.84-1.96,1.65-4.61,2.94-7.93,3.89-3.32.95-7.49,1.43-12.49,1.43h-55.86v-38.66h56.24c1.46,0,2.74-.3,3.85-.9,1.11-.6,1.66-1.73,1.66-3.37s-.57-2.66-1.71-3.23c-1.14-.57-2.41-.86-3.8-.86h-56.24l13.3-16.53h42.08c3.8,0,7.23.36,10.31,1.09,3.07.73,5.7,1.84,7.88,3.33,2.19,1.49,3.86,3.33,5.03,5.51,1.17,2.19,1.76,4.73,1.76,7.65,0,1.9-.25,3.58-.76,5.03-.51,1.46-1.16,2.74-1.95,3.85-.79,1.11-1.71,2.03-2.75,2.76-1.05.73-2.11,1.28-3.18,1.66ZM394.8,190.04v8.74h36.19c2.15,0,3.7-.38,4.65-1.14.95-.76,1.43-1.87,1.43-3.32s-.47-2.45-1.43-3.18c-.95-.73-2.5-1.09-4.65-1.09h-36.19Z"></path><path class="cls-1" d="M540.43,198.78l-12.63,16.34h-61.18v-63.55h73.62l-12.73,16.53h-41.13v7.6h50.35l-11.31,14.44h-39.04v8.64h54.05Z"></path><path class="cls-1" d="M637.33,215.12h-26.31l-14.16-16.81h-30.21v16.81h-19.66v-32.49h55.29c3.04,0,5.6-.63,7.69-1.9,2.09-1.27,3.14-3.01,3.14-5.22,0-2.47-.95-4.32-2.85-5.56-1.9-1.24-4.56-1.85-7.98-1.85h-55.29l12.83-16.53h40.85c3.61,0,7.35.33,11.21,1,3.86.67,7.38,1.85,10.54,3.56,3.17,1.71,5.78,4.02,7.84,6.93,2.06,2.91,3.09,6.65,3.09,11.21,0,2.47-.38,4.81-1.14,7.03-.76,2.22-1.85,4.21-3.28,5.98-1.42,1.77-3.17,3.28-5.22,4.51-2.06,1.23-4.39,2.11-6.98,2.61,1.08.82,2.28,1.87,3.61,3.14,1.33,1.27,3.1,3.01,5.32,5.22l11.69,12.35Z"></path><path class="cls-1" d="M726.91,187.38c0,19.19-13.2,28.79-39.61,28.79-7.66,0-14.25-.6-19.76-1.81-5.51-1.2-10.06-3.01-13.63-5.41-3.58-2.41-6.21-5.4-7.89-8.98-1.68-3.58-2.52-7.77-2.52-12.59v-35.81h19.57v35.81c0,2.34.32,4.31.95,5.89.63,1.58,1.82,2.87,3.56,3.85,1.74.98,4.2,1.68,7.36,2.09,3.17.41,7.28.62,12.35.62,3.8,0,6.97-.22,9.5-.66,2.53-.44,4.56-1.17,6.08-2.19,1.52-1.01,2.61-2.31,3.28-3.9.66-1.58,1-3.48,1-5.7v-35.81h19.76v35.81Z"></path><path class="cls-1" d="M821.91,175.41c0,3.55-.7,6.76-2.09,9.64-1.39,2.88-3.44,5.34-6.13,7.36-2.69,2.03-5.97,3.61-9.83,4.75-3.86,1.14-8.27,1.71-13.21,1.71h-33.25v16.24h-19.57v-32.49h54.72c3.04,0,5.4-.67,7.08-2,1.68-1.33,2.52-3.1,2.52-5.32s-.84-3.97-2.52-5.27c-1.68-1.3-4.04-1.95-7.08-1.95h-54.72l13.02-16.53h39.9c4.94,0,9.34.59,13.2,1.76,3.86,1.17,7.12,2.8,9.79,4.89,2.66,2.09,4.69,4.59,6.08,7.5,1.39,2.91,2.09,6.14,2.09,9.69Z"></path></g><g><g><path class="cls-2" d="M461.48,231.26h18.48c2.39,0,4.44.24,6.15.71,1.71.47,3.11,1.13,4.2,1.98,1.08.85,1.89,1.88,2.4,3.09.52,1.21.78,2.55.78,4.03,0,1.35-.24,2.59-.71,3.7-.47,1.12-1.2,2.07-2.17,2.85-.97.79-2.21,1.4-3.7,1.84-1.49.44-3.25.66-5.26.66h-14.99c-1.13,0-1.97.17-2.52.52-.55.35-.83.93-.83,1.74v2.31h30.41l-6.27,8.11h-33.57v-10.33c0-2.89,1.01-5.05,3.02-6.48,2.01-1.43,4.95-2.15,8.82-2.15h14.99c1.13,0,1.97-.16,2.52-.49.55-.33.83-.9.83-1.72s-.28-1.38-.83-1.7c-.55-.31-1.39-.47-2.52-.47h-25.51l6.27-8.2Z"></path><path class="cls-2" d="M525.37,259.03c-.72,0-1.38-.12-1.96-.35-.58-.24-1.08-.55-1.49-.94-.41-.39-.72-.84-.94-1.34-.22-.5-.33-1.04-.33-1.6,0-.66.16-1.32.47-1.98.31-.66.83-1.29,1.56-1.89l22.77-18.48c.79-.63,1.58-1.07,2.38-1.32.8-.25,1.49-.38,2.05-.38.69,0,1.37.11,2.03.33.66.22,1.23.57,1.72,1.04.49.47.88,1.08,1.18,1.84.3.75.45,1.65.45,2.69v14.66h9.01l-5.71,7.73h-3.3v3.77h-9.34v-3.77h-20.56ZM545.93,246.59c0-.94.02-1.73.05-2.36.03-.63.08-1.21.14-1.74-.75.75-1.9,1.76-3.44,3.02l-3.49,2.78c-.88.72-1.66,1.34-2.33,1.86-.68.52-1.31.97-1.91,1.34.66-.06,1.43-.11,2.31-.14.88-.03,1.9-.05,3.07-.05h5.61v-4.72Z"></path></g><rect class="cls-2" x="196.25" y="243.41" width="245.54" height="6.73"></rect><rect class="cls-2" x="576.37" y="243.41" width="245.54" height="6.73"></rect></g></g><path class="cls-1" d="M367.29,76.91c-113.94-18.47-148.54-47.41-157.69-57.96L190.8,0l-18.91,19.13c-2.95,3.4-8.25,8.37-17.51,14.23-20.17,12.77-60.85,30.7-140.06,43.54l-14.32,2.32v14.5c0,13.01.7,25.98,2.08,38.85,5.42,50.4,21.31,99.36,46.77,143.43,31.95,55.34,78.09,101.48,133.43,133.44l8.53,4.92,8.53-4.92c53.4-30.84,98.23-74.88,130.01-127.66h-40.57c-23.26,33.58-52.61,62.61-86.44,85.54-8.31-7.55-27.11-25.04-33.79-34.68,0,0,10.78,28.3,21.64,41.81-10.9-6.78-21.33-14.15-31.25-22.05-20.96-46.9-20.76-95.68-20.76-95.68-8.75,22.63-7.25,55.26-5.65,72.22-6.25-6.19-12.25-12.6-17.97-19.24-13.88-59.93,7.71-126.75,7.71-126.75-24.1,31.21-28.12,82.16-28.79,99.54-6.04-8.68-11.66-17.65-16.84-26.85,8.63-89.89,60.82-106.67,60.82-106.67-47.13,2.1-77.77,30.62-88.51,42.42-.86-2.77-1.68-5.54-2.47-8.33,2.18-2.12,6.31-5.9,12.27-10.36,25.99-19.48,57.73-29.73,90.21-29.73h3.45s22.18.72,24.59,20.96c0,0,8.1-1.81,11.58-9.31,2.45-5.29,1.59-11.53-1.72-16.34-1.15-1.66-2.61-3.63-4.39-5.7-3.49-4.07-8.18-8.53-13.9-11.69l-6.75-3.86-1.69-1.09s-5.9-13.5-16.27-15.91c0,0-54.36-14.94-90.52,24.35,0,0,28.04-8.2,47.01-10.44l4.36-.67c5.21-.78,10.46-1.18,15.72-1.18h11.42c2.42,0,4.71,1.39,5.58,3.65.84,2.19.35,4.74-5.47,5.8-.84.16-1.71.14-2.55-.07-2.24-.54-6.84-2.04-9.42-5.77,0,0-33.35,1.68-62.91,16.88-6.64,3.42-13.1,7.52-18.94,12.45-.65-4.13-1.23-8.28-1.72-12.45-.98-8.12-1.65-16.3-2.01-24.52,93.47-16.82,136.59-41.38,156.41-59.5,19.82,18.11,62.94,42.68,156.4,59.5-.36,8.21-1.02,16.38-1.99,24.52h34.3c1.39-12.88,2.08-25.84,2.08-38.85v-14.5l-14.31-2.32Z"></path></g></g></svg>