<svg xmlns="http://www.w3.org/2000/svg" id="Layer_1" data-name="Layer 1" viewBox="0 0 1369.53 813.45"><defs><style>.cls-1{fill:#10b9f2;}</style></defs><path class="cls-1" d="M68.7,311.31H31.61a13.88,13.88,0,0,0-13.88,13.88V624.1a51,51,0,0,0,51,50.94h0a13.87,13.87,0,0,0,13.86-13.88v-336A13.86,13.86,0,0,0,68.7,311.31Zm291.68,0H323.32a13.87,13.87,0,0,0-13.88,13.87V635.53a13.87,13.87,0,0,1-4.06,9.81l-51.14,51.15a13.9,13.9,0,0,1-19.63,0l-50.75-50.75a13.88,13.88,0,0,1-4.07-9.82V325.18a13.87,13.87,0,0,0-13.88-13.87H128.85A13.87,13.87,0,0,0,115,325.18V668.71a13.86,13.86,0,0,0,4.59,10.3l60.23,54.33,54.82,54.82a13.9,13.9,0,0,0,19.63,0l36-36,19.18-19.2v0l60.24-54.32a13.89,13.89,0,0,0,4.58-10.3V325.18A13.87,13.87,0,0,0,360.38,311.31Zm97.24,0H420.55a13.87,13.87,0,0,0-13.87,13.88v336A13.87,13.87,0,0,0,420.55,675,50.94,50.94,0,0,0,471.5,624.1V325.19A13.87,13.87,0,0,0,457.62,311.31Z"></path><path class="cls-1" d="M421.26,212.11h-47v-67a13.86,13.86,0,0,0-4.59-10.3L309.44,80.46v0L254.23,25.29a13.89,13.89,0,0,0-19.62,0l-36,36-18.81,18.8-60.23,54.32A13.89,13.89,0,0,0,115,144.74v67.37H68a50.25,50.25,0,0,0-50.25,50.25v.71a13.87,13.87,0,0,0,13.87,13.86h159a21.56,21.56,0,0,1,21.56,21.56V620.18a13.82,13.82,0,0,0,4,9.79l18.54,18.58a13.86,13.86,0,0,0,19.64,0L273,630a13.86,13.86,0,0,0,4-9.79V298.49a21.56,21.56,0,0,1,21.56-21.56h159a13.87,13.87,0,0,0,13.88-13.87v-.69A50.25,50.25,0,0,0,421.26,212.11Zm-111.82,0H179.78V177.53a13.84,13.84,0,0,1,4.06-9.79L234.61,117a13.85,13.85,0,0,1,19.62,0l51.15,51.15a13.83,13.83,0,0,1,4.06,9.8Z"></path><path class="cls-1" d="M756.21,227.68V347.57H727.39V260.86l-69.14,76H633.76l-69.31-76,.17,86.71h-29V227.86A16.78,16.78,0,0,1,552.44,211a22.1,22.1,0,0,1,17,7.55l76.77,85.49,76.4-85.45a22.11,22.11,0,0,1,17-7.59,16.63,16.63,0,0,1,16.65,16.65Z"></path><path class="cls-1" d="M945.13,318.57v29h-134a22.74,22.74,0,0,1-22.74-22.74V277.51a22.74,22.74,0,0,1,22.74-22.74l112.54-.19v29H818.25a.62.62,0,0,0-.59.23c-.33.35-.33.52-.33.68v33.34c0,.16,0,.33.33.67a.6.6,0,0,0,.58.24Z"></path><polygon class="cls-1" points="945.13 212.11 945.13 240.92 788.34 241.11 788.34 212.11 945.13 212.11"></polygon><polygon class="cls-1" points="1134.05 212.11 1134.05 241.11 1070.24 241.11 1070.24 347.57 1041.24 347.57 1041.24 241.11 977.25 241.11 977.25 212.11 1134.05 212.11"></polygon><path class="cls-1" d="M1351.8,347.57h-35.86L1258.87,247.4,1203.5,347.57h-35.84l69.16-124a19.83,19.83,0,0,1,3.66-5.05,23.32,23.32,0,0,1,4.66-3.63,22.3,22.3,0,0,1,5.54-2.32,23.12,23.12,0,0,1,6-.8h5a22.87,22.87,0,0,1,7.89,1.38,22.43,22.43,0,0,1,6.91,4,21.45,21.45,0,0,1,5,6.15Z"></path><polygon class="cls-1" points="674.67 428.45 674.67 454.49 618.22 454.49 618.22 548.68 592.18 548.68 592.18 454.49 535.57 454.49 535.57 428.45 674.67 428.45"></polygon><polygon class="cls-1" points="844.11 428.45 844.11 454.33 705.01 454.5 705.01 428.45 844.11 428.45"></polygon><path class="cls-1" d="M844.11,522.63v26H725.33A20.31,20.31,0,0,1,705,528.37V486.51a20.31,20.31,0,0,1,20.32-20.32l99.75-.17v26.06H731.67c-.24,0-.26,0-.38.15s-.24.34-.24.46v29.49c0,.13,0,.22.23.47a.4.4,0,0,0,.38.15Z"></path><path class="cls-1" d="M900.34,455v66.6c0,.12,0,.22.23.46s.14.16.38.16l112.6-.5v27L894.83,549h-.49a19,19,0,0,1-14-5.91,19.93,19.93,0,0,1-5.92-14.41V448.92a20.31,20.31,0,0,1,20.32-20.31h118.78V454.5L901,454.34c-.31,0-.36.05-.46.15S900.34,454.64,900.34,455Z"></path><polygon class="cls-1" points="1182.06 428.45 1182.06 548.68 1156.18 548.68 1156.18 492.08 1069.02 492.23 1069.18 548.68 1043.12 548.68 1043.12 428.45 1069.18 428.45 1069.02 466.19 1156.18 466.19 1156.18 428.45 1182.06 428.45"></polygon><path class="cls-1" d="M1351,528.35a20.31,20.31,0,0,1-20.32,20.33H1211.89v-26h112.28c.31,0,.36,0,.46-.15s.16-.16.16-.46V493c0-.31-.06-.37-.16-.47s-.15-.15-.46-.15l-92.14-.16a20.31,20.31,0,0,1-20.3-20.31V448.77A20.31,20.31,0,0,1,1232,428.45h118.79V454.5l-112.45-.16c-.23,0-.26,0-.37.15s-.24.34-.24.46v10.47a.69.69,0,0,0,.23.61c.13.14.15.16.39.16h92.12a20.31,20.31,0,0,1,20.32,20.3Z"></path><path class="cls-1" d="M565.57,661.06a22.92,22.92,0,0,1-8.9-1.73,22.57,22.57,0,0,1-7.27-4.84,21.87,21.87,0,0,1-4.85-7.21,23.69,23.69,0,0,1,0-17.75,22.24,22.24,0,0,1,4.87-7.21,22.56,22.56,0,0,1,7.28-4.82,22.93,22.93,0,0,1,8.91-1.72,25.28,25.28,0,0,1,6.61.86,23.25,23.25,0,0,1,5.89,2.45A20.66,20.66,0,0,1,583,623l-3.2,3.38a17.25,17.25,0,0,0-6.33-4.55,19.78,19.78,0,0,0-7.84-1.6,17.85,17.85,0,0,0-7.09,1.37,17.22,17.22,0,0,0-5.67,3.85,17.69,17.69,0,0,0-3.77,5.77,18.69,18.69,0,0,0-1.36,7.17,19,19,0,0,0,1.34,7.16,17.61,17.61,0,0,0,3.79,5.8,17.44,17.44,0,0,0,5.74,3.86,18.18,18.18,0,0,0,7.11,1.39,19.51,19.51,0,0,0,7.78-1.59,17.44,17.44,0,0,0,6.21-4.42l3.14,3.26a24.16,24.16,0,0,1-4.93,3.89,23.26,23.26,0,0,1-5.87,2.47A24.83,24.83,0,0,1,565.57,661.06Z"></path><path class="cls-1" d="M617.92,673.84a12.66,12.66,0,0,1-1.66-.1,9,9,0,0,1-1.28-.22v-4.2a11.59,11.59,0,0,0,2.64.25c2.75,0,4.85-1.62,6.27-4.88l1.89-4.33L613,629h5.14l10.14,25.78,11-25.76h5l-15.71,36.29a22.15,22.15,0,0,1-2.82,4.89,9.49,9.49,0,0,1-3.42,2.75A10.46,10.46,0,0,1,617.92,673.84Z"></path><path class="cls-1" d="M675.94,660.47l0-43.9,4.65-1.06,0,16.87a14,14,0,0,1,10.1-3.81,15.16,15.16,0,0,1,8,2.17,16.08,16.08,0,0,1,5.67,5.8,17.18,17.18,0,0,1,0,16.46,16,16,0,0,1-5.68,5.83,15.33,15.33,0,0,1-8.09,2.16,15.56,15.56,0,0,1-5.36-1,15.87,15.87,0,0,1-4.73-2.7v3.14Zm14.31-3.56a11.33,11.33,0,0,0,6-1.59,11.79,11.79,0,0,0,4.17-4.33,12.36,12.36,0,0,0,1.54-6.17,12.59,12.59,0,0,0-1.53-6.21,11.5,11.5,0,0,0-4.17-4.36,11.2,11.2,0,0,0-6-1.61,12.93,12.93,0,0,0-5.49,1.16,11,11,0,0,0-4.17,3.22l0,15.55a11.42,11.42,0,0,0,4.2,3.18A13.15,13.15,0,0,0,690.25,656.91Z"></path><path class="cls-1" d="M755,661.11a15.81,15.81,0,0,1-8.18-2.17,16.24,16.24,0,0,1-5.83-5.87,16,16,0,0,1-2.15-8.28,16.33,16.33,0,0,1,2.07-8.18,16,16,0,0,1,5.59-5.83,14.68,14.68,0,0,1,7.84-2.16,13.7,13.7,0,0,1,7.56,2.18,15.52,15.52,0,0,1,5.32,5.83,17,17,0,0,1,2,8.19v1.44l-25.78,0a12.93,12.93,0,0,0,2,5.52,11.7,11.7,0,0,0,4.17,3.86,11.54,11.54,0,0,0,5.64,1.41,15.44,15.44,0,0,0,4.77-.75,11,11,0,0,0,3.89-2.12l2.88,3.07a19.67,19.67,0,0,1-5.49,2.91A19.17,19.17,0,0,1,755,661.11Zm-11.46-18.57,21,0a11.81,11.81,0,0,0-1.84-5,11.19,11.19,0,0,0-3.67-3.52,9.34,9.34,0,0,0-4.83-1.29,10.06,10.06,0,0,0-5,1.25,10.8,10.8,0,0,0-3.77,3.48A12.39,12.39,0,0,0,743.56,642.54Z"></path><path class="cls-1" d="M803,660.59l0-31.42h4.65v4.45a10.6,10.6,0,0,1,3.67-3.79,9.69,9.69,0,0,1,5.12-1.35,9,9,0,0,1,2.94.45v4.26a7.59,7.59,0,0,0-1.63-.44,11.19,11.19,0,0,0-1.63-.13,8,8,0,0,0-5,1.66,11,11,0,0,0-3.42,4.79l0,21.51Z"></path><path class="cls-1" d="M948.8,661.35a24.45,24.45,0,0,1-10-2.11,24.93,24.93,0,0,1-8.4-6.06l3.2-3.32a23.79,23.79,0,0,0,7.24,5.46,18.72,18.72,0,0,0,8.12,1.83,16,16,0,0,0,6.12-1.09,9.9,9.9,0,0,0,4.17-3.07,7.23,7.23,0,0,0,1.51-4.48,6.19,6.19,0,0,0-2.35-5.21q-2.36-1.83-7.74-2.71l-6.33-1q-6.35-1.07-9.35-3.77a9.36,9.36,0,0,1-3-7.34,10.79,10.79,0,0,1,2-6.39,12.74,12.74,0,0,1,5.43-4.29,19.88,19.88,0,0,1,8.06-1.53,28.59,28.59,0,0,1,9.12,1.51,28.06,28.06,0,0,1,8.18,4.34L962,625.87q-7.2-5.46-14.73-5.47a14.71,14.71,0,0,0-5.52,1,8.58,8.58,0,0,0-3.7,2.7,6.47,6.47,0,0,0-1.32,4,5.61,5.61,0,0,0,2.06,4.71c1.38,1.09,3.66,1.88,6.83,2.39l6.27,1c4.81.79,8.3,2.15,10.47,4a10.08,10.08,0,0,1,3.26,8,11.46,11.46,0,0,1-2.14,6.8,14,14,0,0,1-5.93,4.64A21.78,21.78,0,0,1,948.8,661.35Z"></path><path class="cls-1" d="M1014,661.35a16,16,0,0,1-8.19-2.17,16.72,16.72,0,0,1-5.9-22.33,15.8,15.8,0,0,1,5.59-5.83,14.65,14.65,0,0,1,7.84-2.16,13.63,13.63,0,0,1,7.55,2.17,15.65,15.65,0,0,1,5.33,5.84,17,17,0,0,1,2,8.19v1.44l-25.77,0a12.7,12.7,0,0,0,2,5.52,11.55,11.55,0,0,0,9.81,5.28,15.44,15.44,0,0,0,4.77-.75,11,11,0,0,0,3.89-2.13l2.88,3.08a20.5,20.5,0,0,1-5.49,2.91A19.26,19.26,0,0,1,1014,661.35Zm-11.46-18.58,21,0a11.91,11.91,0,0,0-1.85-5,11.07,11.07,0,0,0-3.67-3.51,9.33,9.33,0,0,0-4.82-1.29,10,10,0,0,0-5,1.25,10.84,10.84,0,0,0-3.76,3.47A12.22,12.22,0,0,0,1002.56,642.77Z"></path><path class="cls-1" d="M1076.54,661.4a15.44,15.44,0,0,1-8.09-2.17,16,16,0,0,1-5.76-5.87,16.47,16.47,0,0,1,5.79-22.38,15.27,15.27,0,0,1,8.09-2.18,17.56,17.56,0,0,1,6.64,1.29,17.17,17.17,0,0,1,5.65,3.67l-2.95,3.38a12.89,12.89,0,0,0-4.3-3,12.53,12.53,0,0,0-5-1,10.9,10.9,0,0,0-5.8,1.59,11.82,11.82,0,0,0-4.15,4.33,12.24,12.24,0,0,0-1.54,6.11,12.47,12.47,0,0,0,1.53,6.15,11.57,11.57,0,0,0,4.17,4.36,11,11,0,0,0,5.83,1.6,12,12,0,0,0,4.86-1,14.34,14.34,0,0,0,4.3-2.94l2.88,3.14a18.39,18.39,0,0,1-5.65,3.69A16.44,16.44,0,0,1,1076.54,661.4Z"></path><path class="cls-1" d="M1133.54,661.52a12.84,12.84,0,0,1-6.33-1.54,10.94,10.94,0,0,1-4.29-4.27,12.6,12.6,0,0,1-1.53-6.37l0-19.88H1126v18.94a9,9,0,0,0,2.37,6.62,8.58,8.58,0,0,0,6.4,2.41,9.8,9.8,0,0,0,5-1.28,10,10,0,0,0,3.61-3.6l0-23.08h4.64l0,31.42h-4.64v-3.64A12.37,12.37,0,0,1,1133.54,661.52Z"></path><path class="cls-1" d="M1183.27,660.94l0-31.42h4.64V634a10.52,10.52,0,0,1,3.67-3.79,9.65,9.65,0,0,1,5.11-1.35,9.37,9.37,0,0,1,3,.44v4.27a7.44,7.44,0,0,0-1.63-.44,11.08,11.08,0,0,0-1.63-.13,8.07,8.07,0,0,0-5.05,1.66,11.08,11.08,0,0,0-3.42,4.79l0,21.51Z"></path><path class="cls-1" d="M1234.67,623.55a3,3,0,0,1-2.2-.94,3.13,3.13,0,0,1-.94-2.26,2.92,2.92,0,0,1,1-2.17,3.15,3.15,0,0,1,4.42,0,3,3,0,0,1,.9,2.22,3.05,3.05,0,0,1-.91,2.2A3,3,0,0,1,1234.67,623.55ZM1232.31,661l0-31.41H1237l0,31.42Z"></path><path class="cls-1" d="M1284.55,661.66a9.13,9.13,0,0,1-6.27-1.95,7.16,7.16,0,0,1-2.19-5.65l0-20.5h-6.77V629.6h6.77v-8l4.58-1.19v9.16h9.47v4h-9.47l0,19.32a4.87,4.87,0,0,0,1.12,3.6,5.16,5.16,0,0,0,3.7,1.1,11.68,11.68,0,0,0,4.58-.81v4.08a12.16,12.16,0,0,1-2.67.62A21.65,21.65,0,0,1,1284.55,661.66Z"></path><path class="cls-1" d="M1324.36,674.49a12.45,12.45,0,0,1-1.66-.1,8.94,8.94,0,0,1-1.29-.22V670a11.59,11.59,0,0,0,2.64.25q4.14,0,6.27-4.88l1.89-4.33-12.77-31.36h5.15l10.13,25.78,11-25.76h5L1335,666a21.91,21.91,0,0,1-2.83,4.89,9.49,9.49,0,0,1-3.42,2.75A10.44,10.44,0,0,1,1324.36,674.49Z"></path></svg>