<svg xmlns="http://www.w3.org/2000/svg" width="125" height="54" viewBox="0 0 125 54" fill="none"><g clip-path="url(#clip0_33_1455)"><path d="M58.436 39.3574H59.5C60.0925 39.3574 60.5887 39.454 60.9812 39.7065C61.4898 40.0358 61.7737 40.6028 61.7737 41.2663C61.7737 41.8927 61.5194 42.4325 61.075 42.7667C60.6776 43.0688 60.1493 43.1975 59.4136 43.1975H58.436V39.3574ZM59.4728 42.5984C59.9764 42.5984 60.3344 42.5241 60.6109 42.3235C60.9071 42.1057 61.1022 41.7343 61.1022 41.2738C61.1022 40.8132 60.8899 40.4196 60.5739 40.2017C60.2727 39.9937 59.8851 39.9566 59.4679 39.9566H59.1075V42.5984H59.4728Z" fill="white"></path><path d="M62.4377 43.0814C62.2575 42.9477 62.1464 42.7422 62.1464 42.4822C62.1464 42.195 62.2847 41.9846 62.4797 41.8509C62.6747 41.7172 62.9389 41.6702 63.2104 41.6702C63.3907 41.6702 63.5536 41.6924 63.7141 41.7296V41.5761C63.7141 41.4176 63.6721 41.3012 63.5882 41.222C63.4919 41.1378 63.3437 41.0958 63.1487 41.0958C62.8377 41.0958 62.5661 41.2022 62.3661 41.3285V40.7442C62.5735 40.6278 62.8747 40.5312 63.245 40.5312C63.5832 40.5312 63.8844 40.6105 64.0819 40.7764C64.2572 40.9249 64.3559 41.1477 64.3559 41.4721V42.4748C64.3559 42.6184 64.4078 42.7199 64.5361 42.7199C64.583 42.7199 64.6373 42.7051 64.6793 42.6828V43.1854C64.6003 43.2225 64.4892 43.2498 64.3609 43.2498C64.1485 43.2498 63.9486 43.1755 63.8276 43.0121H63.8177C63.6597 43.1384 63.3882 43.2621 63.045 43.2621C62.8327 43.2621 62.6155 43.2151 62.4427 43.0864L62.4377 43.0814ZM63.7116 42.5887V42.148C63.5956 42.1158 63.4376 42.096 63.3092 42.096C63.045 42.096 62.7858 42.1802 62.7858 42.4352C62.7858 42.6481 62.971 42.7472 63.1981 42.7472C63.3931 42.7472 63.5832 42.6778 63.7116 42.5887Z" fill="white"></path><path d="M65.3459 42.2547V41.1356H64.8917V40.5884H65.3459V39.8927L65.9853 39.7812V40.5884H66.721V41.1356H65.9853V42.1655C65.9853 42.4577 66.0371 42.7003 66.3284 42.7003C66.4667 42.7003 66.6148 42.6483 66.721 42.5889V43.1361C66.6049 43.2054 66.3926 43.2574 66.1927 43.2574C65.9655 43.2574 65.7211 43.1881 65.5582 43.0024C65.4249 42.8588 65.3459 42.6409 65.3459 42.2547Z" fill="white"></path><path d="M67.3727 43.0814C67.1924 42.9477 67.0814 42.7422 67.0814 42.4822C67.0814 42.195 67.2196 41.9846 67.4146 41.8509C67.6097 41.7172 67.8738 41.6702 68.1454 41.6702C68.3256 41.6702 68.4885 41.6924 68.649 41.7296V41.5761C68.649 41.4176 68.607 41.3012 68.5231 41.222C68.4268 41.1378 68.2787 41.0958 68.0837 41.0958C67.7726 41.0958 67.501 41.2022 67.3011 41.3285V40.7442C67.5084 40.6278 67.8096 40.5312 68.1799 40.5312C68.5181 40.5312 68.8193 40.6105 69.0168 40.7764C69.1921 40.9249 69.2909 41.1477 69.2909 41.4721V42.4748C69.2909 42.6184 69.3427 42.7199 69.4711 42.7199C69.518 42.7199 69.5723 42.7051 69.6143 42.6828V43.1854C69.5353 43.2225 69.4242 43.2498 69.2958 43.2498C69.0835 43.2498 68.8835 43.1755 68.7625 43.0121H68.7527C68.5947 43.1384 68.3231 43.2621 67.98 43.2621C67.7677 43.2621 67.5504 43.2151 67.3776 43.0864L67.3727 43.0814ZM68.6465 42.5887V42.148C68.5305 42.1158 68.3725 42.096 68.2441 42.096C67.98 42.096 67.7208 42.1802 67.7208 42.4352C67.7208 42.6481 67.9059 42.7472 68.133 42.7472C68.3281 42.7472 68.5181 42.6778 68.6465 42.5887Z" fill="white"></path><path d="M74.4949 40.8954L73.9616 42.3116L74.8282 43.1881L74.8232 43.198H74.0258L73.6605 42.8315C73.4432 43.0766 73.0828 43.2549 72.5594 43.2549C71.6559 43.2549 71.2214 42.7077 71.2214 42.1457C71.2214 41.7223 71.4806 41.3807 71.925 41.1479L71.9768 41.1207L71.8978 41.0365C71.6756 40.8087 71.5003 40.5537 71.5003 40.2294C71.5003 39.6872 71.9496 39.291 72.5569 39.291C73.1642 39.291 73.6037 39.7144 73.6037 40.2294C73.6037 40.6057 73.3766 40.8979 73.0704 41.0935L72.8853 41.2148L73.5 41.8362L73.8382 40.8929H74.4949V40.8954ZM73.221 42.3809L72.3693 41.5168L72.2261 41.5911C71.9669 41.7298 71.8608 41.9353 71.8608 42.1259C71.8608 42.4082 72.0879 42.6929 72.5792 42.6929C72.8952 42.6929 73.0976 42.5666 73.2186 42.3809H73.221ZM72.3644 40.6899L72.5026 40.8335L72.6927 40.6948C72.8631 40.5785 72.9742 40.4448 72.9742 40.2541C72.9742 40.0164 72.7939 39.8605 72.552 39.8605C72.2928 39.8605 72.1397 40.0363 72.1397 40.2467C72.1397 40.3953 72.2138 40.5215 72.3669 40.6874L72.3644 40.6899Z" fill="white"></path><path d="M76.9957 44.3664H76.3563V40.5907H76.9908V40.7392L77.0007 40.7442C77.1759 40.6229 77.408 40.5312 77.6944 40.5312C78.3757 40.5312 78.9361 41.066 78.9361 41.8781C78.9361 42.6902 78.3338 43.2572 77.5759 43.2572C77.3438 43.2572 77.1463 43.2052 77.0056 43.1359L76.9957 43.1408V44.3664ZM77.5364 42.7224C78.003 42.7224 78.2918 42.3783 78.2918 41.9153C78.2918 41.4523 78.0054 41.0834 77.5512 41.0834C77.3512 41.0834 77.1488 41.1527 76.9957 41.274V42.5788C77.129 42.6531 77.3241 42.7224 77.5364 42.7224Z" fill="white"></path><path d="M79.5311 40.5888H80.1655V40.9552L80.1754 40.9601C80.3556 40.7051 80.6247 40.5615 80.9308 40.5615C80.9876 40.5615 81.0469 40.5665 81.1061 40.5838V41.2003C81.0419 41.1854 80.9802 41.1731 80.8938 41.1731C80.5926 41.1731 80.3482 41.3068 80.168 41.5593V43.1983H79.5286V40.5888H79.5311Z" fill="white"></path><path d="M82.7552 40.5312C83.5649 40.5312 84.1673 41.1255 84.1673 41.8955C84.1673 42.6655 83.5649 43.2597 82.7552 43.2597C81.9454 43.2597 81.3431 42.6655 81.3431 41.8955C81.3431 41.1255 81.9454 40.5312 82.7552 40.5312ZM82.7552 42.6952C83.1995 42.6952 83.5279 42.3461 83.5279 41.893C83.5279 41.4399 83.1995 41.0933 82.7552 41.0933C82.3108 41.0933 81.9825 41.4424 81.9825 41.893C81.9825 42.3436 82.3108 42.6952 82.7552 42.6952Z" fill="white"></path><path d="M86.8335 43.0596C86.5965 43.1933 86.2929 43.2552 86.0188 43.2552C85.182 43.2552 84.5796 42.6833 84.5796 41.9034C84.5796 41.1235 85.2363 40.5293 86.0509 40.5293C86.3324 40.5293 86.5916 40.5986 86.7915 40.7001V41.3265C86.5644 41.178 86.3102 41.0888 86.0608 41.0888C85.5597 41.0888 85.2264 41.4429 85.2264 41.9009C85.2264 42.359 85.5745 42.6957 86.0732 42.6957C86.3472 42.6957 86.6286 42.5991 86.8335 42.4357V43.0621V43.0596Z" fill="white"></path><path d="M87.9271 42.0692C88.0061 42.505 88.3493 42.7278 88.7887 42.7278C89.117 42.7278 89.4232 42.6065 89.6774 42.4258V43.015C89.433 43.1685 89.0652 43.2601 88.7245 43.2601C87.8876 43.2601 87.2754 42.7179 87.2754 41.9033C87.2754 41.0888 87.895 40.5342 88.6036 40.5342C89.2479 40.5342 89.8206 40.9749 89.8206 41.8117C89.8206 41.8959 89.8157 42.0024 89.8058 42.0717H87.9271V42.0692ZM87.9271 41.6236H89.2232C89.1763 41.2299 88.8899 41.0516 88.5986 41.0516C88.3073 41.0516 88.0061 41.2324 87.9271 41.6236Z" fill="white"></path><path d="M90.381 42.4456C90.6995 42.6362 91.0945 42.7328 91.3808 42.7328C91.6672 42.7328 91.8573 42.6436 91.8573 42.4579C91.8573 42.193 91.524 42.2029 91.1266 42.1237C90.6303 42.0172 90.2847 41.8365 90.2847 41.3661C90.2897 40.8189 90.7661 40.5342 91.3907 40.5342C91.7018 40.5342 92.0721 40.6035 92.3535 40.7397V41.3289C92.035 41.1432 91.6549 41.0591 91.3858 41.0591C91.1167 41.0591 90.9365 41.1383 90.9365 41.3141C90.9365 41.5642 91.2599 41.5518 91.6499 41.6384C92.1461 41.7399 92.5066 41.9083 92.5066 42.4084C92.5016 42.9705 92.0153 43.2626 91.3685 43.2626C91.0451 43.2626 90.6649 43.1933 90.3785 43.0621V42.453L90.381 42.4456Z" fill="white"></path><path d="M93.0423 42.4458C93.3608 42.6364 93.7582 42.733 94.0471 42.733C94.3359 42.733 94.526 42.6414 94.526 42.4557C94.526 42.1883 94.1903 42.2007 93.7928 42.119C93.2941 42.0125 92.9485 41.8318 92.9485 41.3564C92.9534 40.8067 93.4324 40.5195 94.0569 40.5195C94.3705 40.5195 94.7408 40.5889 95.0222 40.7275V41.3192C94.7037 41.1335 94.3211 41.0469 94.0495 41.0469C93.778 41.0469 93.5978 41.1261 93.5978 41.3019C93.5978 41.552 93.9212 41.5421 94.3137 41.6263C94.8124 41.7278 95.1728 41.8986 95.1728 42.3987C95.1679 42.9632 94.6791 43.2554 94.0323 43.2554C93.7089 43.2554 93.3262 43.1861 93.0398 43.0524V42.4408L93.0423 42.4458Z" fill="white"></path><path d="M96.8737 42.4458C97.1922 42.6364 97.5896 42.733 97.8785 42.733C98.1673 42.733 98.3574 42.6414 98.3574 42.4557C98.3574 42.1883 98.0217 42.2007 97.6242 42.119C97.1255 42.0125 96.7799 41.8318 96.7799 41.3564C96.7848 40.8067 97.2638 40.5195 97.8884 40.5195C98.2019 40.5195 98.5722 40.5889 98.8536 40.7275V41.3192C98.5352 41.1335 98.1525 41.0469 97.881 41.0469C97.6094 41.0469 97.4292 41.1261 97.4292 41.3019C97.4292 41.552 97.7526 41.5421 98.1451 41.6263C98.6438 41.7278 99.0042 41.8986 99.0042 42.3987C98.9993 42.9632 98.5105 43.2554 97.8637 43.2554C97.5403 43.2554 97.1576 43.1861 96.8713 43.0524V42.4408L96.8737 42.4458Z" fill="white"></path><path d="M100.086 42.0694C100.165 42.5051 100.51 42.7304 100.95 42.7304C101.278 42.7304 101.587 42.6091 101.841 42.4259V43.0176C101.596 43.1711 101.226 43.2627 100.885 43.2627C100.046 43.2627 99.4313 42.7205 99.4313 41.8985C99.4313 41.0765 100.053 40.5244 100.764 40.5244C101.411 40.5244 101.986 40.9651 101.986 41.8069C101.986 41.8911 101.982 41.9976 101.972 42.0669H100.088L100.086 42.0694ZM100.086 41.6212H101.387C101.34 41.2276 101.051 41.0468 100.76 41.0468C100.468 41.0468 100.165 41.2276 100.086 41.6212Z" fill="white"></path><path d="M104.692 43.0642C104.453 43.1978 104.151 43.2622 103.875 43.2622C103.036 43.2622 102.431 42.6878 102.431 41.9054C102.431 41.1231 103.09 40.5264 103.907 40.5264C104.189 40.5264 104.448 40.5957 104.65 40.6972V41.3261C104.423 41.1775 104.166 41.0859 103.917 41.0859C103.413 41.0859 103.078 41.4424 103.078 41.9005C103.078 42.3585 103.428 42.7002 103.927 42.7002C104.203 42.7002 104.485 42.6036 104.692 42.4402V43.0691V43.0642Z" fill="white"></path><path d="M105.312 42.1904V40.5835H105.954V42.0839C105.954 42.3191 105.991 42.4578 106.07 42.5469C106.166 42.6583 106.292 42.6905 106.415 42.6905C106.67 42.6905 106.919 42.5469 107.094 42.3488V40.5811H107.736V43.2005H107.099V42.9133L107.089 42.9084C106.872 43.1114 106.591 43.26 106.24 43.26C105.954 43.26 105.704 43.1585 105.544 42.9827C105.383 42.8069 105.309 42.5667 105.309 42.1904H105.312Z" fill="white"></path><path d="M108.499 40.5839H109.136V40.9503L109.146 40.9553C109.326 40.7002 109.597 40.5566 109.904 40.5566C109.963 40.5566 110.02 40.5616 110.079 40.5789V41.1954C110.015 41.1806 109.95 41.1682 109.867 41.1682C109.563 41.1682 109.318 41.3019 109.138 41.5569V43.2009H108.496V40.5814L108.499 40.5839Z" fill="white"></path><path d="M110.859 39.3154C111.076 39.3154 111.256 39.4962 111.256 39.714C111.256 39.9319 111.076 40.1127 110.854 40.1127C110.632 40.1127 110.457 39.9319 110.457 39.714C110.457 39.4962 110.637 39.3154 110.859 39.3154ZM110.536 40.5831H111.177V43.2026H110.536V40.5831Z" fill="white"></path><path d="M112.133 42.2543V41.1302H111.676V40.583H112.133V39.8849L112.775 39.7734V40.583H113.513V41.1302H112.775V42.1627C112.775 42.4548 112.827 42.6999 113.12 42.6999C113.259 42.6999 113.407 42.6479 113.513 42.5885V43.1382C113.397 43.2075 113.184 43.2595 112.982 43.2595C112.755 43.2595 112.511 43.1902 112.345 43.0045C112.212 42.8609 112.133 42.643 112.133 42.2543Z" fill="white"></path><path d="M114.135 44.3736L114.831 42.9153L113.752 40.583H114.448L114.804 41.3926C114.937 41.6972 115.043 41.9423 115.154 42.2171H115.164C115.285 41.9249 115.419 41.6254 115.547 41.3382L115.888 40.583H116.539L114.804 44.3736H114.135Z" fill="white"></path><path d="M66.321 13.665V15.4601H63.4055V22.9719H61.3836V15.4601H58.4681V13.665H66.321Z" fill="white"></path><path d="M68.9921 16.4033C70.8906 16.4033 72.5866 17.5472 72.5866 19.7804C72.5866 22.0137 70.8906 23.1575 68.9921 23.1575C67.0937 23.1575 65.3977 22.0137 65.3977 19.7804C65.3977 17.5472 67.106 16.4033 68.9921 16.4033ZM68.9921 18.0523C67.9207 18.0523 67.3233 18.7975 67.3233 19.7804C67.3233 20.7634 67.9207 21.5086 68.9921 21.5086C70.0636 21.5086 70.6733 20.7634 70.6733 19.7804C70.6733 18.7975 70.0759 18.0523 68.9921 18.0523Z" fill="white"></path><path d="M76.0873 14.2891V16.5892H78.1486V18.144H76.0873V20.6422C76.0873 21.3057 76.4255 21.6004 77.1315 21.6004C77.566 21.6004 77.9314 21.5335 78.3116 21.3874V22.8754C77.8104 23.0487 77.213 23.1552 76.5612 23.1552C75.2997 23.1552 74.2135 22.5833 74.2135 21.0012V18.144H73.1149V16.5892H74.2135V14.7273L76.0848 14.2891H76.0873Z" fill="white"></path><path d="M85.6757 21.7463C85.7843 21.7463 85.9053 21.7339 86.0287 21.6918V22.9025C85.73 23.009 85.3498 23.0882 84.9845 23.0882C84.3204 23.0882 83.8168 22.848 83.5477 22.3702C82.9108 22.8629 82.1652 23.1551 81.1999 23.1551C79.9804 23.1551 78.9213 22.4643 78.9213 21.2016C78.9213 19.5799 80.4815 19.0748 81.7826 19.0748C82.2985 19.0748 82.8688 19.1416 83.328 19.2481V19.0228C83.328 18.384 82.812 17.9458 81.7949 17.9458C80.8988 17.9458 80.0989 18.186 79.4891 18.4236V16.8292C80.0174 16.6559 81.0074 16.4033 82.0122 16.4033C83.9649 16.4033 85.2141 17.1882 85.2141 19.2877V21.3229C85.2141 21.6547 85.4313 21.7488 85.6757 21.7488V21.7463ZM80.8469 21.0555C80.8469 21.5334 81.2938 21.8404 81.864 21.8404C82.3923 21.8404 82.8959 21.6943 83.328 21.3229V20.3251C83.0441 20.2583 82.6096 20.179 82.217 20.179C81.5258 20.179 80.8469 20.4043 80.8469 21.0555Z" fill="white"></path><path d="M88.8356 13.2666V22.9721H86.9495V13.2666H88.8356Z" fill="white"></path><path d="M63.5684 24.9629C64.5189 24.9629 65.4669 25.1634 66.2815 25.5621V27.4635C65.6718 26.9981 64.7904 26.7331 63.9066 26.7331C62.2378 26.7331 60.5566 27.6641 60.5566 29.9097C60.5443 31.9573 62.2526 32.861 63.9066 32.861C64.8842 32.861 65.7779 32.596 66.3482 32.091V34.0444C65.5335 34.4307 64.5979 34.6436 63.5956 34.6436C61.0602 34.6436 58.4681 33.1556 58.4681 29.9097C58.4804 26.5054 61.0306 24.9654 63.5684 24.9654V24.9629Z" fill="white"></path><path d="M72.2212 28.0742H74.174L71.2856 35.2271C70.5524 37.0072 69.5353 37.5544 68.4787 37.5544C68.1405 37.5544 67.7998 37.4875 67.4616 37.4083V35.8782C67.7183 35.9327 67.9775 35.9723 68.2343 35.9723C68.9132 35.9723 69.4291 35.5192 69.7797 34.5759L69.7945 34.5487L66.716 28.0742H68.7107L70.6092 32.3823L72.2237 28.0742H72.2212Z" fill="white"></path><path d="M76.9957 25.1484V28.7509C77.4031 28.2978 78.1091 27.8868 79.1385 27.8868C81.1999 27.8868 82.3133 29.5233 82.3133 31.2639C82.3133 33.0044 81.2024 34.641 79.1385 34.641C77.9314 34.641 77.1858 34.0963 76.7785 33.5244V34.4553H75.1096V25.1484H76.9957ZM78.6769 29.4416C77.8499 29.4416 77.2401 29.9467 76.9809 30.5038V32.019C77.2376 32.5786 77.8499 33.0837 78.6769 33.0837C79.7483 33.0837 80.3853 32.2592 80.3853 31.2614C80.3853 30.2636 79.7483 29.4391 78.6769 29.4391V29.4416Z" fill="white"></path><path d="M86.5299 27.8887C89.2282 27.8887 90.0972 29.9758 89.6627 31.8649H85.0783C85.2955 32.7959 86.2978 33.1821 87.3717 33.1821C88.1173 33.1821 88.7813 33.036 89.3393 32.7959V34.2443C88.7295 34.4968 87.9296 34.6429 86.952 34.6429C84.8907 34.6429 83.1823 33.4867 83.1823 31.2658C83.1823 28.8592 85.0684 27.8887 86.5323 27.8887H86.5299ZM86.5965 29.2975C85.7967 29.2975 85.0906 29.7902 85.0635 30.6666H87.9667C88.0333 30.2284 87.7766 29.2975 86.5965 29.2975Z" fill="white"></path><path d="M95.2666 27.9413V29.7364C94.2347 29.563 93.2447 29.9493 92.8522 30.7069V34.4554H90.9661V28.075H92.635V29.0332C93.0966 28.3276 94.0446 27.8225 95.2666 27.9438V27.9413Z" fill="white"></path><path d="M99.298 30.4395V31.9943H96.2294V30.4395H99.298Z" fill="white"></path><path d="M104.393 24.9624C105.519 24.9624 106.66 25.2274 107.472 25.6804V27.5423C106.672 26.9828 105.601 26.7055 104.542 26.7178C103.51 26.7302 102.996 27.01 102.996 27.5819C102.996 29.1912 108.19 28.5921 108.19 31.9023C108.19 33.9895 106.482 34.6407 104.487 34.6407C103.171 34.6407 101.952 34.3361 100.974 33.8038V31.9023C102.061 32.608 103.253 32.8853 104.339 32.8853C105.425 32.8853 106.117 32.66 106.117 31.994C106.117 30.2534 100.922 30.9046 100.922 27.6067C100.922 25.8117 102.522 24.96 104.396 24.96L104.393 24.9624Z" fill="white"></path><path d="M112.328 27.8887C115.026 27.8887 115.895 29.9758 115.461 31.8649H110.876C111.093 32.7959 112.096 33.1821 113.17 33.1821C113.915 33.1821 114.579 33.036 115.137 32.7959V34.2443C114.527 34.4968 113.728 34.6429 112.75 34.6429C110.689 34.6429 108.98 33.4867 108.98 31.2658C108.98 28.8592 110.866 27.8887 112.33 27.8887H112.328ZM112.395 29.2975C111.595 29.2975 110.889 29.7902 110.861 30.6666H113.765C113.831 30.2284 113.575 29.2975 112.395 29.2975Z" fill="white"></path><path d="M120.072 27.874C120.791 27.874 121.497 28.0325 122.079 28.3395V29.9612C121.618 29.669 120.968 29.4833 120.344 29.4833C119.312 29.4833 118.322 29.9761 118.322 31.2635C118.322 32.4866 119.299 33.0437 120.317 33.0437C121.008 33.0437 121.672 32.858 122.148 32.5782V34.2148C121.511 34.4797 120.778 34.6406 119.951 34.6406C118.174 34.6406 116.396 33.6305 116.396 31.3576C116.396 28.9114 118.268 27.874 120.072 27.874Z" fill="white"></path><path d="M26.3823 14.4056C26.9501 14.7919 27.4685 15.2499 27.9104 15.802C31.8727 20.7538 34.25 27.3298 34.961 31.2714C35.2375 32.8064 35.2573 33.9305 35.0178 34.4083C36.0917 32.8237 37.1977 31.0114 38.274 28.9267C38.274 28.9267 41.6537 21.7243 39.2467 16.7899C38.943 16.2675 38.6345 15.7649 38.3209 15.292C36.8027 14.8488 32.7565 13.9451 26.3823 14.4056Z" fill="url(#paint0_radial_33_1455)"></path><path d="M23.089 6.18096C23.089 6.18096 22.8545 6.27256 22.4842 6.43597C20.9487 7.12922 16.7938 9.34019 13.7474 14.0741C13.6709 14.1904 13.5969 14.3093 13.5203 14.4257C14.6905 13.9825 15.8582 13.6309 16.9987 13.3759C17.2802 13.0416 17.569 12.7074 17.8825 12.3806C20.0377 10.0557 23.2396 7.44861 27.2192 6.66623C24.7727 6.00269 23.094 6.18096 23.094 6.18096H23.0915H23.089Z" fill="url(#paint1_radial_33_1455)"></path><path d="M26.3995 43.5049C25.5849 43.0296 24.8492 42.5369 24.1728 42.0293C23.4593 42.3016 22.7532 42.4527 22.0694 42.4304C18.8947 42.3338 13.9943 39.6648 10.5159 35.332C10.8442 36.8374 11.333 37.9812 11.7675 38.776C12.4094 39.546 19.2304 47.4416 26.3971 43.5049H26.3995Z" fill="url(#paint2_radial_33_1455)"></path><path d="M26.323 14.4107C24.9727 14.5097 23.5309 14.6632 21.9732 14.9034C19.2946 15.3565 14.5843 16.5003 13.4734 19.0084C12.9451 20.1126 12.4835 21.1748 12.0959 22.1874C12.3921 23.2843 12.9032 24.6534 13.7869 26.2058C14.2782 27.2234 15.7298 29.9147 17.2185 31.4448C17.569 31.8062 17.9467 32.1479 18.3392 32.4723C18.5071 22.9005 25.4318 15.1807 26.323 14.4082V14.4107Z" fill="url(#paint3_radial_33_1455)"></path><path d="M18.3392 32.4721C17.9467 32.1453 17.569 31.8061 17.2184 31.4446C15.7298 29.9145 14.2782 27.2232 13.7869 26.2056C12.9031 24.6532 12.3946 23.2841 12.0959 22.1873C11.6367 20.4913 11.6885 19.4539 11.6885 19.4539C11.8144 17.1315 12.6711 15.7425 13.5203 14.4278C13.5968 14.3115 13.6734 14.1926 13.7474 14.0763C16.7938 9.33989 20.9486 7.12893 22.4842 6.43568C22.8594 6.26484 23.0816 6.18314 23.089 6.18066H23.0915C23.089 6.18066 0.547257 6.90362 3.61092 20.157C4.84034 25.4728 6.8079 29.5877 8.78039 32.888C8.97048 33.205 9.17538 33.5045 9.38769 33.7942C9.39263 33.8041 9.3951 33.8115 9.3951 33.8115C9.74566 34.3414 10.1258 34.844 10.5184 35.3317C13.9968 39.6645 18.8972 42.3335 22.0719 42.4301C22.7557 42.4499 23.4618 42.3014 24.1752 42.029C29.3743 40.0334 34.9586 31.2762 34.961 31.2713C27.1377 36.6415 21.8769 35.4035 18.3417 32.4721H18.3392Z" fill="url(#paint4_radial_33_1455)"></path><path d="M42.8263 8.12734C38.8739 6.60467 32.3492 6.10949 28.4387 6.48335C28.024 6.52296 27.6191 6.58981 27.2216 6.66904C23.2421 7.45142 20.0402 10.0561 17.885 12.3834C17.5715 12.7102 17.2802 13.0444 17.0012 13.3787C16.6482 13.7996 16.3124 14.223 16.0113 14.6389C15.2188 15.7035 14.7991 16.4315 14.7991 16.4315C14.809 16.429 14.8189 16.4265 14.8287 16.424C14.7374 16.5775 14.651 16.7236 14.5695 16.8672C14.1745 17.6001 13.8092 18.3131 13.4759 19.0089C14.5893 16.5008 19.2971 15.3569 21.9756 14.9038C23.5334 14.6637 24.9751 14.5102 26.3255 14.4111C26.3354 14.4037 26.3428 14.3963 26.3527 14.3864C26.3625 14.3938 26.3724 14.3988 26.3823 14.4062C32.7565 13.9457 36.8052 14.8518 38.321 15.2926C38.7727 15.4238 39.0073 15.5154 39.0073 15.5154C43.0164 16.5701 44.3989 22.126 45.0901 26.6073C45.4037 28.64 44.863 30.7941 44.863 30.7941C44.863 30.7941 55.4661 12.9949 42.8263 8.12486V8.12734Z" fill="url(#paint5_radial_33_1455)"></path><path d="M42.93 26.3769C42.6387 24.4036 42.0116 22.5368 41.3451 20.977C41.313 20.9003 41.2809 20.826 41.2513 20.7591C40.1848 18.3204 39.18 16.6318 39.18 16.6318C39.2072 16.6838 39.2245 16.7383 39.2492 16.7903C41.6561 21.7272 38.2765 28.9271 38.2765 28.9271C37.1977 31.0143 36.0942 32.8266 35.0203 34.4087C30.9716 40.3731 27.3697 42.9084 27.3697 42.9084C27.0488 43.1337 26.7254 43.3244 26.4045 43.5026C19.2378 47.4393 12.5476 39.6402 11.7749 38.7737L11.7675 38.7786C11.7675 38.7786 22.6792 57.8009 32.4405 47.7488C37.368 42.6732 39.6071 40.1255 41.5327 36.6419C43.4262 33.2153 43.4558 29.447 42.9374 26.3744L42.93 26.3769Z" fill="url(#paint6_radial_33_1455)"></path></g><defs><radialGradient id="paint0_radial_33_1455" cx="0" cy="0" r="1" gradientUnits="userSpaceOnUse" gradientTransform="translate(23.1236 22.0685) scale(18.9004 18.9554)"><stop stop-color="#9E9D9C"></stop><stop offset="0.12" stop-color="#8A8988"></stop><stop offset="0.35" stop-color="#686866"></stop><stop offset="0.57" stop-color="#50504E"></stop><stop offset="0.78" stop-color="#424240"></stop><stop offset="0.95" stop-color="#3D3D3B"></stop></radialGradient><radialGradient id="paint1_radial_33_1455" cx="0" cy="0" r="1" gradientUnits="userSpaceOnUse" gradientTransform="translate(27.076 22.4549) scale(21.9024 21.9661)"><stop stop-color="#9E9D9C"></stop><stop offset="0.12" stop-color="#8A8988"></stop><stop offset="0.35" stop-color="#686866"></stop><stop offset="0.57" stop-color="#50504E"></stop><stop offset="0.78" stop-color="#424240"></stop><stop offset="0.95" stop-color="#3D3D3B"></stop></radialGradient><radialGradient id="paint2_radial_33_1455" cx="0" cy="0" r="1" gradientUnits="userSpaceOnUse" gradientTransform="translate(26.9895 29.7365) scale(21.7024 21.7655)"><stop stop-color="#9E9D9C"></stop><stop offset="0.12" stop-color="#8A8988"></stop><stop offset="0.35" stop-color="#686866"></stop><stop offset="0.57" stop-color="#50504E"></stop><stop offset="0.78" stop-color="#424240"></stop><stop offset="0.95" stop-color="#3D3D3B"></stop></radialGradient><radialGradient id="paint3_radial_33_1455" cx="0" cy="0" r="1" gradientUnits="userSpaceOnUse" gradientTransform="translate(24.8443 38.5109) scale(25.9115 25.9869)"><stop stop-color="#9E9D9C"></stop><stop offset="0.12" stop-color="#8A8988"></stop><stop offset="0.35" stop-color="#686866"></stop><stop offset="0.57" stop-color="#50504E"></stop><stop offset="0.78" stop-color="#424240"></stop><stop offset="0.95" stop-color="#3D3D3B"></stop></radialGradient><radialGradient id="paint4_radial_33_1455" cx="0" cy="0" r="1" gradientUnits="userSpaceOnUse" gradientTransform="translate(0.199168 14.8215) scale(22.127 22.1914)"><stop stop-color="#F6F6F6"></stop><stop offset="0.18" stop-color="#F1F1F1"></stop><stop offset="0.36" stop-color="#E5E5E5"></stop><stop offset="0.54" stop-color="#D0D0D0"></stop><stop offset="0.73" stop-color="#B3B3B3"></stop><stop offset="0.91" stop-color="#8F8F8F"></stop><stop offset="1" stop-color="#7B7B7B"></stop></radialGradient><radialGradient id="paint5_radial_33_1455" cx="0" cy="0" r="1" gradientUnits="userSpaceOnUse" gradientTransform="translate(32.8923 6.94139) scale(18.1055 18.1581)"><stop stop-color="#F6F6F6"></stop><stop offset="0.16" stop-color="#F1F1F1"></stop><stop offset="0.35" stop-color="#E3E3E3"></stop><stop offset="0.54" stop-color="#CCCCCC"></stop><stop offset="0.75" stop-color="#ACACAC"></stop><stop offset="0.96" stop-color="#848484"></stop><stop offset="1" stop-color="#7B7B7B"></stop></radialGradient><radialGradient id="paint6_radial_33_1455" cx="0" cy="0" r="1" gradientUnits="userSpaceOnUse" gradientTransform="translate(27.2883 35.2208) scale(15.6491 15.6946)"><stop stop-color="#F6F6F6"></stop><stop offset="0.29" stop-color="#F3F3F3"></stop><stop offset="0.46" stop-color="#EBEBEB"></stop><stop offset="0.6" stop-color="#DCDCDC"></stop><stop offset="0.73" stop-color="#C8C8C8"></stop><stop offset="0.84" stop-color="#AEAEAE"></stop><stop offset="0.95" stop-color="#8E8E8E"></stop><stop offset="1" stop-color="#7B7B7B"></stop></radialGradient><clipPath id="clip0_33_1455"><rect width="118.821" height="44.5263" fill="white" transform="translate(3.32703 6.1582)"></rect></clipPath></defs></svg>